<?xml version="1.0" standalone="no"?>
<!DOCTYPE svg PUBLIC "-//W3C//DTD SVG 20010904//EN"
 "http://www.w3.org/TR/2001/REC-SVG-20010904/DTD/svg10.dtd">
<svg version="1.0" xmlns="http://www.w3.org/2000/svg"
 width="128.000000pt" height="128.000000pt" viewBox="0 0 128.000000 128.000000"
 preserveAspectRatio="xMidYMid meet">

<g transform="translate(0.000000,128.000000) scale(0.100000,-0.100000)"
fill="#000000" stroke="none">
<path d="M1089 1115 c-113 -113 -151 -145 -172 -145 -77 0 -117 -70 -70 -122
21 -23 75 -23 96 0 8 9 18 35 22 57 6 35 27 60 152 186 127 128 157 169 125
169 -4 0 -73 -65 -153 -145z"/>
<path d="M283 923 c-17 -21 -43 -63 -58 -93 -15 -30 -57 -85 -93 -122 l-66
-68 57 0 c31 0 57 1 57 3 0 1 5 29 10 62 9 56 14 63 87 137 l77 78 -20 21 -21
21 -30 -39z"/>
<path d="M1152 844 l-22 -68 37 37 c36 35 37 37 22 67 l-14 31 -23 -67z"/>
<path d="M560 815 l-55 -55 128 -128 127 -127 56 56 c42 42 55 61 50 76 -8 26
-219 233 -237 233 -8 0 -39 -25 -69 -55z"/>
<path d="M928 698 c-10 -8 -18 -36 -21 -75 -6 -77 -46 -153 -101 -194 -41 -30
-121 -59 -162 -59 -15 0 -58 -38 -138 -120 -63 -66 -126 -124 -138 -129 -22
-8 -22 -9 10 -25 54 -28 181 -56 251 -56 140 1 300 57 390 137 l42 38 -49 48
-49 49 -49 -37 c-70 -54 -213 -110 -231 -91 -4 4 39 53 94 109 95 95 101 103
87 122 -13 18 -8 26 88 122 l103 103 -40 0 -39 0 34 35 34 35 -50 0 c-28 0
-57 -6 -66 -12z"/>
<path d="M21 78 c-28 -75 -23 -84 30 -67 49 17 55 26 33 50 -34 37 -53 43 -63
17z"/>
</g>
</svg>
