<svg xmlns="http://www.w3.org/2000/svg" enable-background="new 0 0 2800 2000" viewBox="0 0 2800 2000"><path fill="#d5f0ff" fill-rule="evenodd" d="M413.4,526.5C574.8,258.1,1038.6,75.4,1576.7,94.9c659.9,24.2,1181.5,343,1165,712.2    c-8,180.2-142.5,339.2-355.1,451.9c-161.5,268.4-625.2,451.1-1163.3,431.6c-659.9-24.2-1181.1-343-1165-712.2    C66.3,797.8,200.7,639.2,413.4,526.5L413.4,526.5z" clip-rule="evenodd"/><polygon fill="#0643a3" fill-rule="evenodd" points="678.6 1795.8 489.5 1795.8 489.5 964.2 1055.1 964.2 1055.1 1067.7 678.6 1067.7 678.6 1310.4 992.3 1310.4 992.3 1414 678.6 1414" clip-rule="evenodd"/><path fill="#0643a3" fill-rule="evenodd" d="M1257.2,1597.7l-68,198.1H1059l287.5-831.6h212.1l292.7,831.6h-189.1l-73.2-198.1H1257.2z M1550,1476.4      l-126.9-355l-121.3,355H1550z" clip-rule="evenodd"/><path fill="#0643a3" fill-rule="evenodd" d="M2382.6,1777.6l76.6,115.9h-144.7l-49.6-90.6l-1.2,0.2l-3.4,0.2l-5.6,0.6l-8,0.8l-4.6,0.4l-4.8,0.4      l-4.8,0.2l-4.8,0.4l-5,0.2h-4.8l-5.2,0.2h-5h-7.8l-7.8-0.4l-7.8-0.4l-7.6-0.6l-7.6-0.8l-7.8-0.8l-7.4-1.2l-7.6-1.2l-7.6-1.6      l-7.4-1.6l-7.4-1.8l-7.4-2l-7.4-2l-7.2-2.4l-7.4-2.4l-7.2-2.8l-7.2-2.8l-7-3l-7.2-3l-7-3.4l-7-3.6l-7-3.6l-7-3.8l-7-4l-6.8-4.2      l-6.8-4.4l-6.8-4.6l-6.8-4.6l-6.6-5l-6.8-5l-6.6-5.2l-6.6-5.4l-6.4-5.6l-6.4-6l-6-6.4l-5.8-6.6l-5.6-6.8l-5.4-7.4l-5.4-7.6      l-5-7.8l-4.8-8.2l-4.6-8.6l-4.4-8.8l-4.2-9.2l-4-9.6l-3.8-9.8l-3.6-10.2l-3.4-10.6l-3.2-10.8l-3-11l-2.6-11.6l-2.6-11.6      l-2.4-12.2l-2.2-12.4l-1.8-12.8l-1.8-13l-1.6-13.4l-1.4-13.8l-1-14l-1-14.4l-0.6-14.8l-0.6-15l-0.2-15.4l-0.2-15.6l0.4-13      l0.6-13l0.8-12.6l0.8-12.4l1-12.2l1.2-12l1.4-11.8l1.4-11.6l1.8-11.4l1.8-11.2l1.8-11l2.2-10.8l2.2-10.4l2.6-10.4l2.6-10.2      l2.6-9.8l3-9.8l3-9.4l3.2-9.2l3.4-9l3.6-9l3.6-8.6l3.8-8.4l4-8.2l4.2-8l4.2-7.6l4.6-7.6l4.6-7.4l4.8-7.2l4.8-6.8l5.2-6.8      l5.2-6.4l5.4-6.2l5.6-6.2l5.8-5.8l6-5.6l6-5.6l6.4-5.2l6.4-5.2l6.6-4.8l7-4.8l7-4.4l7.2-4.4l7.2-4.2l7.6-3.8l7.8-3.8l7.8-3.6      l8.2-3.4l8.2-3.2l8.4-2.8l8.6-2.8l8.8-2.6l9-2.4l9-2.2l9.4-2l9.4-1.8l9.8-1.6l9.8-1.6l10-1.2l10.2-1l10.2-0.8l10.6-0.6l10.8-0.6      l10.8-0.2l16.4,0.2l15.8,0.6l7.8,0.4l7.8,0.4l7.6,0.6l7.4,0.8l7.4,0.8l7.2,0.8l7.2,1l7,1.2l7,1.2l6.8,1.2l6.6,1.4l6.8,1.4      l6.4,1.6l6.4,1.6l6.2,1.6l6.2,2l6.2,1.8l5.8,2l6,2.2l5.6,2.2l5.8,2.2l5.4,2.4l5.4,2.4l5.4,2.6l5.2,2.6l5.2,2.8l5,2.8l4.8,3      l4.8,3l4.6,3.2l4.6,3.2l4.6,3.4l4.4,3.4l4.4,3.4l4.2,3.6l4.2,3.6l4,3.8l4,3.8l4,3.8l3.8,4l3.6,4.2l3.8,4l3.4,4.2l3.6,4.4      l3.4,4.4l3.2,4.4l3.2,4.6l3.2,4.8l3,4.6l2.8,4.8l3,5l2.8,5l2.6,5l2.6,5.2l2.4,5.2l2.4,5.4l2.4,5.4l2.2,5.6l2.2,5.6l2,5.6l4,11.6      l3.6,12l3.6,12.6l3.2,12.8l3,13.2l2.8,13.6l2.4,14l2.2,14.4l2.2,14.8l1.6,15.2l1.6,15.6l1.4,16l1,16.4l1,16.8l0.6,17.2l0.4,17.6      l-0.2,15.6l-0.2,15.4l-0.6,15l-0.6,14.6l-1,14.2l-1.2,13.8l-1.4,13.6l-1.4,13.2l-1.8,12.8l-2,12.4l-2.2,12.2l-2.4,11.6      l-2.6,11.4l-2.8,11l-3,10.6l-3.2,10.4l-3.4,10l-3.4,9.6l-3.6,9.2l-3.6,9l-3.6,8.6l-3.8,8.4l-4,8l-3.8,7.8l-4,7.4l-4.2,7      l-4.2,6.8l-4.2,6.4l-4.4,6.2l-4.4,5.8l-4.4,5.4l-4.6,5.2l-4.6,4.8l-4.4,4.8l-4.6,4.4l-4.4,4.4l-4.6,4l-4.4,3.8l-4.2,3.8      l-4.4,3.4l-4.4,3.2l-4.2,3l-4.2,2.8l-4.2,2.6l-4.2,2.4l-4,2.2l-4.2,1.8l-4,1.8l-7.6,3l-6.6,2.8l-5.6,2.2l-5,2l-4,1.6l-3,1.2      l-2.2,1L2382.6,1777.6z M2380.8,1381.8l-0.2-17.6l-0.2-17.2l-0.6-16.6l-0.6-16.2l-1-15.8l-1.2-15.2l-1.4-14.8l-1.4-14.2      l-1.8-13.8l-2-13.4l-2.2-12.8l-2.4-12.2l-2.6-12l-2.8-11.4l-3-10.8l-3.2-10.4l-1.8-5l-1.8-4.8l-2-4.6l-2.2-4.6l-2.2-4.2      l-2.4-4.2l-2.6-4l-2.8-4l-3-3.6l-3-3.6l-3.2-3.4l-3.4-3.2l-3.4-3l-3.6-3l-3.8-2.8l-4-2.6l-4.2-2.4l-4.2-2.4l-4.4-2l-4.4-2      l-4.8-1.8l-4.8-1.6l-5-1.6l-5-1.4l-5.4-1.2l-5.4-1l-5.6-0.8l-5.6-0.8l-6-0.4l-6-0.4l-6-0.4h-6.4l-6,0.2l-5.8,0.2l-5.6,0.6      l-5.6,0.6l-5.4,0.8l-5.2,1l-5.2,1l-5,1.2l-5,1.6l-4.6,1.6l-4.8,1.6l-4.4,2l-4.4,2l-4.4,2.2l-4,2.4l-4,2.6l-4,2.6l-3.8,3l-3.6,3      l-3.6,3.2l-3.2,3.2l-3.4,3.6l-3,3.6l-3,3.8l-3,4l-2.8,4.2l-2.6,4.2l-2.4,4.4l-2.4,4.6l-2.2,4.8l-2.2,5l-2,5l-3.8,10.6l-3.6,11      l-3.2,11.2l-3,11.8l-3,12.2l-2.6,12.6l-2.4,13l-2,13.4l-2,14l-1.6,14.2l-1.4,14.6l-1.4,15.2l-1,15.4l-0.8,16l-0.4,16.2      l-0.4,16.8v13.6l0.2,13.2l0.4,13l0.6,12.4l0.6,12.2l0.8,11.8l0.8,11.6l1,11l1.2,10.8l1.4,10.4l1.4,10l1.6,9.8l1.6,9.2l2,9      l1.8,8.8l2.2,8.2l2.2,7.8l2.4,7.6l2.2,7.4l2.4,7l2.4,6.6l2.4,6.6l2.6,6l2.6,5.8l2.4,5.6l2.8,5.2l2.6,5l2.8,4.6l2.8,4.4l2.8,4.2      l2.8,3.8l3,3.4l3,3.2l2.8,3l2.8,3l3,2.6l2.8,2.6l2.8,2.4l2.8,2.2l2.8,2l2.6,2l2.8,1.8l2.8,1.4l2.6,1.6l2.6,1.2l2.6,1l2.6,1      l2.6,0.8l9.4,2.6l7.4,2l5.4,1.6l3.4,1l-35.6-59h131.9l21.6,35.8l0.8-1l2.4-2.2l3.8-3.2l5.2-4.4l2.8-2.8l3-3.2l3-3.8l2.8-4.4      l3-4.8l3-5.4l3.2-5.8l3-6.4l1.4-3.4l1.6-3.8l1.4-4l1.4-4.2l3-9.2l2.8-10.2l2.6-11.2l2.8-12.2l2.4-13l2.6-14.2l1.2-7.4l1-7.8      l1-7.8l1-8.2l1-8.4l0.8-8.4l0.6-8.8l0.8-9l0.4-9.2l0.6-9.6l0.4-9.6l0.4-9.8l0.2-10.2l0.2-10.2l0.2-10.6V1381.8z" clip-rule="evenodd"/><polygon fill="#2c7efe" fill-rule="evenodd" points="607.7 1795.8 418.5 1795.8 418.5 964.2 984.1 964.2 984.1 1067.7 607.7 1067.7 607.7 1310.4 921.3 1310.4 921.3 1414 607.7 1414" clip-rule="evenodd"/><path fill="#2c7efe" fill-rule="evenodd" d="M1186,1597.7l-68,198.1H987.9l287.5-831.6h212.1l292.7,831.6H1591l-73.2-198.1H1186z M1478.9,1476.4      l-126.9-355l-121.3,355H1478.9z" clip-rule="evenodd"/><path fill="#2c7efe" fill-rule="evenodd" d="M2311.7,1777.6l76.6,115.9h-144.7l-49.6-90.6l-1.2,0.2l-3.4,0.2l-5.6,0.6l-8,0.8l-4.6,0.4l-4.8,0.4      l-4.8,0.2l-4.8,0.4l-5,0.2h-4.8l-5.2,0.2h-5h-7.8l-7.8-0.4l-7.8-0.4l-7.6-0.6l-7.6-0.8l-7.8-0.8l-7.4-1.2l-7.6-1.2l-7.6-1.6      l-7.4-1.6l-7.4-1.8l-7.4-2l-7.4-2l-7.2-2.4l-7.4-2.4l-7.2-2.8l-7.2-2.8l-7-3l-7.2-3l-7-3.4l-7-3.6l-7-3.6l-7-3.8l-7-4l-6.8-4.2      l-6.8-4.4l-6.8-4.6l-6.8-4.6l-6.6-5l-6.8-5l-6.6-5.2l-6.6-5.4l-6.4-5.6l-6.4-6l-6-6.4l-5.8-6.6l-5.6-6.8l-5.4-7.4l-5.4-7.6      l-5-7.8l-4.8-8.2l-4.6-8.6l-4.4-8.8l-4.2-9.2l-4-9.6l-3.8-9.8l-3.6-10.2l-3.4-10.6l-3.2-10.8l-3-11l-2.6-11.6l-2.6-11.6      l-2.4-12.2l-2.2-12.4l-1.8-12.8l-1.8-13l-1.6-13.4l-1.4-13.8l-1-14l-1-14.4l-0.6-14.8l-0.6-15l-0.2-15.4l-0.2-15.6l0.4-13      l0.6-13l0.8-12.6l0.8-12.4l1-12.2l1.2-12l1.4-11.8l1.4-11.6l1.8-11.4l1.8-11.2l1.8-11l2.2-10.8l2.2-10.4l2.6-10.4l2.6-10.2      l2.6-9.8l3-9.8l3-9.4l3.2-9.2l3.4-9l3.6-9l3.6-8.6l3.8-8.4l4-8.2l4.2-8l4.2-7.6l4.6-7.6l4.6-7.4l4.8-7.2l4.8-6.8l5.2-6.8      l5.2-6.4l5.4-6.2l5.6-6.2l5.8-5.8l6-5.6l6-5.6l6.4-5.2l6.4-5.2l6.6-4.8l7-4.8l7-4.4l7.2-4.4l7.2-4.2l7.6-3.8l7.8-3.8l7.8-3.6      l8.2-3.4l8.2-3.2l8.4-2.8l8.6-2.8l8.8-2.6l9-2.4l9-2.2l9.4-2l9.4-1.8l9.8-1.6l9.8-1.6l10-1.2l10.2-1l10.2-0.8l10.6-0.6l10.8-0.6      l10.8-0.2l16.4,0.2l15.8,0.6l7.8,0.4l7.8,0.4l7.6,0.6l7.4,0.8l7.4,0.8l7.2,0.8l7.2,1l7,1.2l7,1.2l6.8,1.2l6.6,1.4l6.8,1.4      l6.4,1.6l6.4,1.6l6.2,1.6l6.2,2l6.2,1.8l5.8,2l6,2.2l5.6,2.2l5.8,2.2l5.4,2.4l5.4,2.4l5.4,2.6l5.2,2.6l5.2,2.8l5,2.8l4.8,3      l4.8,3l4.6,3.2l4.6,3.2l4.6,3.4l4.4,3.4l4.4,3.4l4.2,3.6l4.2,3.6l4,3.8l4,3.8l4,3.8l3.8,4l3.6,4.2l3.8,4l3.4,4.2l3.6,4.4      l3.4,4.4l3.2,4.4l3.2,4.6l3.2,4.8l3,4.6l2.8,4.8l3,5l2.8,5l2.6,5l2.6,5.2l2.4,5.2l2.4,5.4l2.4,5.4l2.2,5.6l2.2,5.6l2,5.6l4,11.6      l3.6,12l3.6,12.6l3.2,12.8l3,13.2l2.8,13.6l2.4,14l2.2,14.4l2.2,14.8l1.6,15.2l1.6,15.6l1.4,16l1,16.4l1,16.8l0.6,17.2l0.4,17.6      l-0.2,15.6l-0.2,15.4l-0.6,15l-0.6,14.6l-1,14.2l-1.2,13.8l-1.4,13.6l-1.4,13.2l-1.8,12.8l-2,12.4l-2.2,12.2l-2.4,11.6      l-2.6,11.4l-2.8,11l-3,10.6l-3.2,10.4l-3.4,10l-3.4,9.6l-3.6,9.2l-3.6,9l-3.6,8.6l-3.8,8.4l-4,8l-3.8,7.8l-4,7.4l-4.2,7      l-4.2,6.8l-4.2,6.4l-4.4,6.2l-4.4,5.8l-4.4,5.4l-4.6,5.2l-4.6,4.8l-4.4,4.8l-4.6,4.4l-4.4,4.4l-4.6,4l-4.4,3.8l-4.2,3.8      l-4.4,3.4l-4.4,3.2l-4.2,3l-4.2,2.8l-4.2,2.6l-4.2,2.4l-4,2.2l-4.2,1.8l-4,1.8l-7.6,3l-6.6,2.8l-5.6,2.2l-5,2l-4,1.6l-3,1.2      l-2.2,1L2311.7,1777.6z M2309.9,1381.8l-0.2-17.6l-0.2-17.2l-0.6-16.6l-0.6-16.2l-1-15.8l-1.2-15.2l-1.4-14.8l-1.4-14.2      l-1.8-13.8l-2-13.4l-2.2-12.8l-2.4-12.2l-2.6-12l-2.8-11.4l-3-10.8l-3.2-10.4l-1.8-5l-1.8-4.8l-2-4.6l-2.2-4.6l-2.2-4.2      l-2.4-4.2l-2.6-4l-2.8-4l-3-3.6l-3-3.6l-3.2-3.4l-3.4-3.2l-3.4-3l-3.6-3l-3.8-2.8l-4-2.6l-4.2-2.4l-4.2-2.4l-4.4-2l-4.4-2      l-4.8-1.8l-4.8-1.6l-5-1.6l-5-1.4l-5.4-1.2l-5.4-1l-5.6-0.8l-5.6-0.8l-6-0.4l-6-0.4l-6-0.4h-6.4l-6,0.2l-5.8,0.2l-5.6,0.6      l-5.6,0.6l-5.4,0.8l-5.2,1l-5.2,1l-5,1.2l-5,1.6l-4.6,1.6l-4.8,1.6l-4.4,2l-4.4,2l-4.4,2.2l-4,2.4l-4,2.6l-4,2.6l-3.8,3l-3.6,3      l-3.6,3.2l-3.2,3.2l-3.4,3.6l-3,3.6l-3,3.8l-3,4l-2.8,4.2l-2.6,4.2l-2.4,4.4l-2.4,4.6l-2.2,4.8l-2.2,5l-2,5l-3.8,10.6l-3.6,11      l-3.2,11.2l-3,11.8l-3,12.2l-2.6,12.6l-2.4,13l-2,13.4l-2,14l-1.6,14.2l-1.4,14.6l-1.4,15.2l-1,15.4l-0.8,16l-0.4,16.2      l-0.4,16.8v13.6l0.2,13.2l0.4,13l0.6,12.4l0.6,12.2l0.8,11.8l0.8,11.6l1,11l1.2,10.8l1.4,10.4l1.4,10l1.6,9.8l1.6,9.2l2,9      l1.8,8.8l2.2,8.2l2.2,7.8l2.4,7.6l2.2,7.4l2.4,7l2.4,6.6l2.4,6.6l2.6,6l2.6,5.8l2.4,5.6l2.8,5.2l2.6,5l2.8,4.6l2.8,4.4l2.8,4.2      l2.8,3.8l3,3.4l3,3.2l2.8,3l2.8,3l3,2.6l2.8,2.6l2.8,2.4l2.8,2.2l2.8,2l2.6,2l2.8,1.8l2.8,1.4l2.6,1.6l2.6,1.2l2.6,1l2.6,1      l2.6,0.8l9.4,2.6l7.4,2l5.4,1.6l3.4,1l-35.6-59h131.9l21.6,35.8l0.8-1l2.4-2.2l3.8-3.2l5.2-4.4l2.8-2.8l3-3.2l3-3.8l2.8-4.4      l3-4.8l3-5.4l3.2-5.8l3-6.4l1.4-3.4l1.6-3.8l1.4-4l1.4-4.2l3-9.2l2.8-10.2l2.6-11.2l2.8-12.2l2.4-13l2.6-14.2l1.2-7.4l1-7.8      l1-7.8l1-8.2l1-8.4l0.8-8.4l0.6-8.8l0.8-9l0.4-9.2l0.6-9.6l0.4-9.6l0.4-9.8l0.2-10.2l0.2-10.2l0.2-10.6V1381.8z" clip-rule="evenodd"/><path fill="#060352" fill-rule="evenodd" d="M2153.4,373.4c-22.8-11.9-34-13.7-43.6,0.8c-6.1,9.4-8.1,26.4-20,32c-10.9,5.1-6.3,47.9-6.3,56.8     c0,15.2,19.8,40.1,2.8,61.9c-9.4,11.9,3.6,50-9.4,65.2c-2.3,2.5-4.1,18.3,15.2,20c31.4,2.8,45.4,7.4,74.3-4.8     c10.9-4.6,102.2,11.7,106.3-0.3c7.1-22.1-19.5-43.9-9.1-69c0-0.5-3.3-30.7-3.3-35.5c0-18.8-8.1-24.3,0.3-51     c8.4-27.1-4.1-62.4-38.3-65.9c-6.8-0.5-23.1-23.6-46.9-16.5L2153.4,373.4z" clip-rule="evenodd"/><path fill="#6767fd" fill-rule="evenodd" d="M2117.4,839H2232c19.5,0,35.5,16,35.5,35.8l0,0c0,19.5-16,35.8-35.5,35.8h-114.6     c-19.8,0-35.8-16.2-35.8-35.8l0,0C2081.7,855,2097.6,839,2117.4,839L2117.4,839z" clip-rule="evenodd"/><path fill="#ff4d8a" fill-rule="evenodd" d="M2176.5,566.9h-0.5h-1.3h-0.3h-1.3h-0.3c-15.7,0-32,0-48.2,1.5l0,0c-17.2,1.5-34.2,4.8-50,11.2     c-39.8,26.9-90.8,147.6-82.7,193.8c9.6,27.6,80.6,24.9,132.6,31.4v6.6h89.3v-5.1c52.5-8.6,132.9-3.3,143.3-33     c7.9-46.2-43.1-166.9-82.7-193.8C2244,567.2,2208.7,566.9,2176.5,566.9L2176.5,566.9z" clip-rule="evenodd"/><path fill="#8183f1" fill-rule="evenodd" d="M2011.9,1004.4l-11.9-33c-4.6-4.1-18-6.6-24.3-7.1c-21.6,1.5-60.9,1.3-61.9,16     c-1.3,20.5,50.2,29.9,66.7,28.7L2011.9,1004.4z" clip-rule="evenodd"/><path fill="#ff9866" fill-rule="evenodd" d="M2041.6,996l-12.2-35.8l-28.9,11.7c-4.3,13.4,1.5,25.4,11.4,32.5L2041.6,996z" clip-rule="evenodd"/><path fill="#8183f1" fill-rule="evenodd" d="M2037.3,1003.6c-10.1-12.9-18.8-28.4-19.3-45.9c72-25.1,364.4-185.4,411.3-134.2     C2486.9,902.4,2138,968.1,2037.3,1003.6L2037.3,1003.6z" clip-rule="evenodd"/><path fill="#6767fd" fill-rule="evenodd" d="M2337.5,1004.4l11.7-33c4.8-4.1,18.3-6.6,24.3-7.1c21.6,1.5,60.9,1.3,62.1,16c1,20.5-50.5,29.9-66.7,28.7     L2337.5,1004.4z" clip-rule="evenodd"/><path fill="#ff9866" fill-rule="evenodd" d="M2307.6,996l12.4-35.8l28.7,11.7c4.6,13.4-1.5,25.4-11.2,32.5L2307.6,996z" clip-rule="evenodd"/><path fill="#9999fe" fill-rule="evenodd" d="M2312.2,1003.6c10.1-12.9,18.5-28.4,19-45.9c-72-25.1-364.2-185.4-411.1-134.2     C1862.5,902.4,2211.3,968.1,2312.2,1003.6L2312.2,1003.6z" clip-rule="evenodd"/><path fill="#84b2fe" fill-rule="evenodd" d="M2057.6,689.2h234.3c7.1,0,13.2,6.1,13.2,13.2v157c0,7.4-6.1,13.2-13.2,13.2h-234.3     c-7.4,0-13.2-5.8-13.2-13.2v-157C2044.4,695.2,2050.2,689.2,2057.6,689.2L2057.6,689.2z" clip-rule="evenodd"/><path fill="#fff" fill-rule="evenodd" d="M2174.7,757.9c0.3,0,0.5,0,0.8,0c-0.3,1.5-0.5,2.8-0.5,4.3c0,10.1,8.4,18.5,18.5,18.5     c1.5,0,2.8-0.3,4.1-0.5c0,0.3,0,0.5,0,0.8c0,12.7-10.1,22.8-22.8,22.8s-23.1-10.1-23.1-22.8     C2151.7,768.3,2162.1,757.9,2174.7,757.9L2174.7,757.9z" clip-rule="evenodd"/><path fill="#ff9866" fill-rule="evenodd" d="M2145.3,515.7c0.3,20.3,0.5,40.6,0.8,60.9c16.2,23.3,47.7,19,61.4,0l-2.3-64.4L2145.3,515.7z" clip-rule="evenodd"/><path fill="#ffaa81" fill-rule="evenodd" d="M2176.5,423.9l-63.4-0.8c10.7,66.4,0.3,132.6,62.6,137.5v0.3c0.3,0,0.5,0,0.8,0c0.3,0,0.5,0,0.8,0v-0.3     c62.1-4.8,52-71,62.4-137.5L2176.5,423.9z" clip-rule="evenodd"/><path fill="#060352" fill-rule="evenodd" d="M2101.2,422.4c8.6,2.5-6.6,16.2,17,21c2.8,0.5,4.3,1.3,22.6,1.8c12.4,0.3,2.5-7.1,25.1-0.8     c17.8,5.1,20-13.4,36.5,9.9c2.5,3.8,29.4,12.2,33.7,12.4c8.6,0.3,18.3,12.7,18.3-12.2c0-9.4,3-30.7-1-34.5     c-12.9-12.4-36.5-6.6-53-12.4c-16-5.6-18-13.2-44.6-12.7c-17,0.3-21.8,20.8-47.9,23.3C2105.8,418.3,2100.4,422.1,2101.2,422.4     L2101.2,422.4z" clip-rule="evenodd"/><g><path fill="#ff9866" fill-rule="evenodd" d="M563.1,1022.2l-32.6,1.8l-2.3-34.4c-12.7-17.6-8.1-21.7-12.2-32.1c-9.5-41.6,33.5-17.6,42.5,0.9     c11.3,11.3,19.9,20.8,15.8,34.4l-11.8,13.6L563.1,1022.2z" clip-rule="evenodd"/><path fill="#be96f8" fill-rule="evenodd" d="M568,887.5l-57.4,9c-10.4,31.2,3.2,79.1,39.8,99c19.4,11.8,55.6-0.9,42.9-11.8     C563.1,951.3,538.2,928.7,568,887.5L568,887.5z" clip-rule="evenodd"/><path fill="#be96f8" fill-rule="evenodd" d="M483.5,899.7l7.2,23.1c0,1.4-0.5,2.3-1.8,2.7l-7.7,2.7c-0.9,0-2.3-0.5-2.7-1.8l-7.2-22.6     c-0.5-1.4,0.5-2.7,1.4-2.7l8.1-2.7C481.7,897.9,483,898.8,483.5,899.7L483.5,899.7z" clip-rule="evenodd"/><path fill="#dfcffd" fill-rule="evenodd" d="M692.4,860.4l-5-12.2l-2.7-13.1l-2.3,0.9L653,767.3c-42,36.2-81.8,71.9-162.8,100.4l-1.4,42.5h-0.5l0.5,0.5     v0.9l0.5-0.5l25.3,34.4c82.7-23.1,136.1-16.7,191.2-11.3l-15.8-73.2L692.4,860.4z" clip-rule="evenodd"/><path fill="#be96f8" fill-rule="evenodd" d="M696.9,845c14.5,46.1,19,85.9,9.9,89.1c-9,2.7-28-32.6-42.5-78.7c-14.9-46.1-19.4-85.9-10.4-88.6     C663,764.1,682,798.9,696.9,845L696.9,845z" clip-rule="evenodd"/><path fill="#8183f1" fill-rule="evenodd" d="M565.3,936.3l-32.1,9.9c-21.2,6.8-45.2-7.7-53.3-32.6l0,0c-7.7-24.9,3.2-51.1,24.9-57.9l31.6-9.9     L565.3,936.3z" clip-rule="evenodd"/><path fill="#6799fe" fill-rule="evenodd" d="M686.5,848.2L686.5,848.2c4.1,13.6-1.4,27.1-13.1,33.9c-3.2-8.1-6.3-17.2-9-26.7     c-3.2-9.5-5.9-18.5-7.7-27.6C669.8,826.9,682.4,835.1,686.5,848.2L686.5,848.2z" clip-rule="evenodd"/><path fill="#260bc0" fill-rule="evenodd" d="M452.8,1853.2l20.3,7.7c25.3,14.9,86.8,9.5,75.5,45.7l-118.4-2.7c0-14.5-0.9-30.3,7.2-44.3L452.8,1853.2z" clip-rule="evenodd"/><path fill="#ff9866" fill-rule="evenodd" d="M436.9,1839.6l36.6,0.9l-0.5,20.3c-12.2,3.2-24.9,2.7-35.7-1.4L436.9,1839.6z" clip-rule="evenodd"/><path fill="#260bc0" fill-rule="evenodd" d="M251.1,1844.1l19.4,9.5c23.5,17.6,85.4,18.1,71,52.9l-118-14.5c1.4-14.5,2.3-29.8,11.3-42.9L251.1,1844.1z" clip-rule="evenodd"/><path fill="#ff9866" fill-rule="evenodd" d="M236.7,1829.2l36.2,4.5l-2.3,19.9c-12.2,2.3-24.9,0.5-35.7-4.5L236.7,1829.2z" clip-rule="evenodd"/><path fill="#ff9866" fill-rule="evenodd" d="M252,1296.7l-20.3,24.4l13.6,15.8c9.9,22.6,14.9,83.6,29.4,67.8l8.6-82.3l-19-9L252,1296.7z" clip-rule="evenodd"/><polygon fill="#260bc0" fill-rule="evenodd" points="343.8 1274 269.7 1342.3 271.9 1592.3 226.7 1829.7 282.8 1836 355.6 1599.6 365 1477.9 403.9 1610.9 432 1850 479 1848.7 481.2 1614.9 431.1 1337.8 401.7 1302.1 353.7 1322.4" clip-rule="evenodd"/><path fill="#ea718b" fill-rule="evenodd" d="M270.1,1046.6c-53.8,33-109,80-154.6,120.7c-6.3,7.7-5.9,14.5-1.8,20.3l122.1,145.1l26.2-28.5l-74.1-109.4     l67.8-27.1l14,174.5c56.5,43.9,106.2-7.7,161.4-4.5l9.9-207.1l95.4,38.4c10.4,5.4,44.3,0.9,44.8-15.4l-15.8-146l-38.9,3.6l1.4,94     l-107.1-61.5C372.3,1031.7,311.2,1024.5,270.1,1046.6L270.1,1046.6z" clip-rule="evenodd"/><path fill="#ff9866" fill-rule="evenodd" d="M379.5,995.6l-55.6,3.2l0.5,50.2c24.4,14.5,47.5,3.6,61-6.3L379.5,995.6z" clip-rule="evenodd"/><path fill="#ffaa81" fill-rule="evenodd" d="M278.2,894.3c35.3-8.6,70.5-17.6,105.8-26.7c14.9,19.4,27.6,109,11.8,133.8c-19.4,31.2-66,19.4-81.8-4.5     C297.7,974.8,274.6,917.3,278.2,894.3L278.2,894.3z" clip-rule="evenodd"/><path fill="#060352" fill-rule="evenodd" d="M353.3,891.1c10.9-9.9,28,4.1,38.4-6.3c13.6-29.8,12.7-57-31.2-64.6c1.8,6.3-1.4,9.9-3.6,11.8     c-6.3-2.3-13.1-7.7-23.5-4.5c8.1,5.4,9.9,9.9,7.2,16.3c-13.6,7.7-37.5-1.8-56.5,9.9c-16.7,13.1-21.7,25.3-24.4,41.1     c-4.1,41.6,24,62.4,37.1,74.1c5,2.7,6.8,3.2,16.7-12.2c-14-8.1-23.1-21.2-13.1-32.1c14-16.3,14,10.9,27.6,11.8     C326.2,924.6,344.7,897.5,353.3,891.1L353.3,891.1z" clip-rule="evenodd"/><path fill="#ff9866" fill-rule="evenodd" d="M543.2,951.7c2.7-6.8,5-6.8,9.5-10.4c3.6-3.2,9-1.8,12.7,1.4c6.3,7.7,11.8,14,18.5,21.7     c5,7.7,3.2,15.4,1.8,19c-2.7,7.7-9.5,12.2-16.3,9C558.5,986.1,537.7,965.3,543.2,951.7L543.2,951.7z" clip-rule="evenodd"/><path fill="#ea718b" d="M1010.6,761.2c-1.1,0-2.1-0.7-2.4-1.8c-0.4-1.3,0.4-2.7,1.7-3.1l138.3-41.1c1.3-0.4,2.7,0.4,3.1,1.7       c0.4,1.3-0.4,2.7-1.7,3.1l-138.3,41.1C1011.1,761.1,1010.9,761.2,1010.6,761.2z"/><path fill="#ea718b" d="M935.6,783.3c-1.1,0-2.1-0.7-2.4-1.8c-0.4-1.3,0.4-2.7,1.7-3.1l46.6-14c1.3-0.4,2.7,0.4,3.1,1.7       c0.4,1.3-0.4,2.7-1.7,3.1l-46.6,14C936.1,783.3,935.8,783.3,935.6,783.3z"/><path fill="#ea718b" d="M804.5,821.7c-1.1,0-2.1-0.7-2.4-1.8c-0.4-1.3,0.4-2.7,1.7-3.1l108.1-31.6c1.3-0.4,2.7,0.4,3.1,1.7       c0.4,1.3-0.4,2.7-1.7,3.1l-108.1,31.6C804.9,821.7,804.7,821.7,804.5,821.7z"/><path fill="#ea718b" d="M987.1,872.4c-1.3,0-2.4-1.1-2.5-2.4c-0.1-1.4,1-2.5,2.4-2.6l138.8-5.4c1.4-0.1,2.5,1,2.6,2.4       c0.1,1.4-1,2.5-2.4,2.6L987.1,872.4C987.2,872.4,987.2,872.4,987.1,872.4z"/><path fill="#ea718b" d="M780.5,881c-1.3,0-2.4-1-2.5-2.4c-0.1-1.4,1-2.5,2.4-2.6l173.2-7.2c1.4-0.1,2.5,1,2.6,2.4       c0.1,1.4-1,2.5-2.4,2.6L780.6,881C780.6,881,780.6,881,780.5,881z"/><path fill="#ea718b" d="M999.3,632.8c-0.8,0-1.6-0.4-2.1-1.2c-0.7-1.2-0.4-2.7,0.8-3.4l48.8-30.3c1.2-0.7,2.7-0.4,3.4,0.8       c0.7,1.2,0.4,2.7-0.8,3.4l-48.8,30.3C1000.2,632.6,999.8,632.8,999.3,632.8z"/><path fill="#ea718b" d="M756.6,783.8c-0.8,0-1.6-0.4-2.1-1.2c-0.7-1.2-0.4-2.7,0.8-3.4l216.6-134.3c1.2-0.7,2.7-0.4,3.4,0.8       c0.7,1.2,0.4,2.7-0.8,3.4L757.9,783.4C757.5,783.6,757,783.8,756.6,783.8z"/></g><path fill="#84b2fe" fill-rule="evenodd" d="M2030.5,198.1h-530.3c-11.7,0-21.3,6.5-21.3,14.7v164.3c0,8.2,9.5,14.7,21.3,14.7h38.7v40.6l63.2-40.6h428.4    c11.7,0,21.5-6.5,21.5-14.7V212.9C2052,204.7,2042.2,198.1,2030.5,198.1L2030.5,198.1z" clip-rule="evenodd"/><path fill="#84b2fe" fill-rule="evenodd" d="M325.7,403.8h448.7c9.9,0,18,6,18,13.6v151.9c0,7.6-8.1,13.6-18,13.6h-32.7v37.5l-53.5-37.5H325.7    c-9.9,0-18.2-6-18.2-13.6V417.4C307.5,409.9,315.8,403.8,325.7,403.8L325.7,403.8z" clip-rule="evenodd"/></svg>