<svg xmlns="http://www.w3.org/2000/svg" fill="none" viewBox="0 0 2500 1875"><g opacity=".5"><path fill="#CEF" fill-rule="evenodd" d="M2123.19 1368.5C1984.67 1332.7 1915.81 1382.38 1758.97 1450.62C1602.12 1518.87 1408.43 1540.75 1187.33 1413.39C966.221 1286.03 718.477 1332.7 617.736 1474.82C550.575 1569.57 395.705 1624.83 153.125 1640.62H2343.75C2289.06 1483.07 2215.55 1392.36 2123.19 1368.5Z" clip-rule="evenodd"/><path fill="#E5F6FF" fill-rule="evenodd" d="M156.25 1640.62C231.219 1454.14 377.899 1391.98 596.29 1454.14C923.878 1547.38 1115.38 1477.45 1286.32 1337.59C1457.25 1197.73 1658.12 1179.08 1894.56 1398.2C2052.19 1544.28 2201.92 1625.08 2343.75 1640.62H156.25Z" clip-rule="evenodd"/></g><path fill="#FFB5B9" fill-rule="evenodd" d="M1910.46 774.907C1912.31 769.541 1910.74 763.825 1906.91 760.123C1907.92 753.514 1908.83 747.467 1909.65 741.981C1909.65 719.201 1890.76 700.734 1867.46 700.734C1844.16 700.734 1825.27 719.201 1825.27 741.981V763.668C1825.27 781.897 1836.12 801.989 1843.73 809.699C1841.99 815.047 1839.81 819.628 1837.19 823.442C1836.61 824.275 1834.8 826.722 1834.33 827.569C1788.55 830.798 1816.05 861.111 1831.66 869.7C1841.21 874.955 1850.89 879.033 1861.3 879.316C1884.3 879.94 1905.53 866.185 1924.99 838.05C1915.72 833.723 1905.74 830.437 1895.06 828.192L1889.86 790.502C1892.37 788.508 1894.7 786.476 1896.76 784.449C1902.75 784.584 1908.4 780.874 1910.46 774.907Z" clip-rule="evenodd"/><path fill="#F97A80" d="M1846.19 810.097C1850.52 813.797 1856 811.823 1874.34 798.327C1875.03 797.816 1876.01 797.965 1876.52 798.66C1877.04 799.355 1876.89 800.333 1876.19 800.845C1856.68 815.202 1850.12 817.566 1844.16 812.472C1843.5 811.911 1843.43 810.925 1843.99 810.269C1844.55 809.613 1845.54 809.536 1846.19 810.097Z"/><path fill="#F97A80" d="M1849.24 785.34C1849.81 784.694 1849.75 783.707 1849.11 783.135C1848.46 782.563 1847.47 782.623 1846.9 783.269C1845.26 785.126 1843.54 785.653 1841.47 784.985C1840.65 784.72 1839.77 785.171 1839.51 785.992C1839.24 786.813 1839.69 787.694 1840.51 787.959C1843.8 789.02 1846.8 788.101 1849.24 785.34Z"/><path fill="#F97A80" d="M1839.33 756.984C1839.33 756.121 1840.03 755.422 1840.89 755.422C1841.75 755.422 1842.45 756.121 1842.45 756.984V769.174C1842.45 769.958 1841.87 770.621 1841.1 770.723C1838.19 771.107 1837.01 771.72 1837.01 771.999C1837.01 772.623 1838.53 774.1 1841.68 775.949C1842.43 776.386 1842.67 777.343 1842.24 778.087C1841.8 778.832 1840.84 779.081 1840.1 778.645C1836 776.238 1833.89 774.183 1833.89 771.999C1833.89 769.746 1835.83 768.493 1839.33 767.839V756.984Z"/><path fill="#0E143F" fill-rule="evenodd" d="M1825.27 745.284C1825.26 743.982 1825.27 742.694 1825.27 741.358C1839.38 742.679 1856.52 742.679 1863.55 720.146C1863.55 749.936 1880.35 749.936 1884.45 755.881C1888.73 762.102 1886.93 765.293 1888.83 765.68C1892.53 766.436 1895.51 754.172 1899.95 755.104C1904.4 756.035 1914.03 764.606 1909.98 775.022C1905.93 785.438 1892.08 782.628 1889.77 789.226C1889.35 790.435 1889.77 792.309 1890.15 794.647C1893.04 815.015 1894.59 826.037 1894.82 827.714C1895.16 830.229 1920.21 833.263 1923.24 839.257C1925.17 843.062 1900.68 861.109 1901.82 864.889C1909.69 891.013 1920.92 907.297 1935.49 913.743C1971.57 929.695 2026.79 893.411 2020.62 844.19C2014.44 794.97 1923.49 806.407 1923.67 775.43C1923.87 741.543 1907.36 705.324 1888.8 705.671C1870.26 681.273 1823.43 698.182 1813.6 711.835C1803.77 725.488 1828.39 746.777 1817.98 785.058C1807.56 823.34 1825.09 826.634 1834.33 827.568C1837.45 827.883 1843.69 810.442 1843.72 809.697C1843.72 808.819 1831.05 794.034 1828.39 777.296C1825.9 761.607 1825.39 753.995 1825.29 747.523C1826.81 747.725 1829.29 747.569 1832 747.036C1836.3 746.189 1839.58 744.709 1839.31 743.73C1839.05 742.752 1835.34 742.645 1831.04 743.492C1828.66 743.96 1826.59 744.621 1825.27 745.284ZM1862.87 746.33C1866.73 747.722 1870.17 748.024 1870.55 747.004C1870.92 745.984 1868.09 744.028 1864.23 742.636C1860.36 741.244 1856.92 740.942 1856.55 741.962C1856.17 742.982 1859 744.938 1862.87 746.33ZM1855.74 760.108C1857.03 760.108 1858.08 759.059 1858.08 757.764C1858.08 756.47 1857.03 755.421 1855.74 755.421C1854.44 755.421 1853.39 756.47 1853.39 757.764C1853.39 759.059 1854.44 760.108 1855.74 760.108ZM1830.74 760.108C1832.03 760.108 1833.08 759.059 1833.08 757.764C1833.08 756.47 1832.03 755.421 1830.74 755.421C1829.44 755.421 1828.39 756.47 1828.39 757.764C1828.39 759.059 1829.44 760.108 1830.74 760.108Z" clip-rule="evenodd"/><path fill="#F97A80" d="M1892.43 769.189C1897.57 764.226 1902.15 764.853 1904.71 771.053C1905.04 771.851 1904.66 772.764 1903.86 773.093C1903.06 773.422 1902.15 773.042 1901.82 772.244C1900.15 768.195 1898.23 767.932 1894.6 771.438C1893.98 772.037 1892.99 772.02 1892.39 771.399C1891.79 770.778 1891.81 769.789 1892.43 769.189Z"/><path fill="#FFB5B9" fill-rule="evenodd" d="M1957.2 1549.85L1924.99 1556.11L1944.57 1622.26L1970.32 1617.34L1957.2 1549.85ZM1758.75 1557.73L1726.19 1553.73L1724.36 1622.69L1750.38 1625.97L1758.75 1557.73Z" clip-rule="evenodd"/><path fill="#1A6EE3" fill-rule="evenodd" d="M1843.16 1234.42L1933.93 1606.05L1968.75 1598.37C1961.19 1454.28 1946.98 1359.84 1926.12 1347.45C1937.44 1266.4 1936.11 1178.57 1922.1 1083.96L1893.3 1085.41L1774.06 1075.79L1721.87 1343.83L1722.96 1598.47L1754.8 1606.05C1777.2 1467.39 1787.38 1383.45 1769.7 1366.71C1792.06 1330.75 1816.55 1286.65 1843.16 1234.42Z" clip-rule="evenodd"/><path fill="#021768" fill-rule="evenodd" d="M1970.49 1612.29C1967.73 1609.57 1954.8 1617.51 1949.42 1617.52C1945.83 1617.54 1943.49 1615.82 1942.4 1612.37C1920.06 1621.51 1906.85 1627.31 1902.77 1629.75C1898.7 1632.19 1897.5 1635.04 1899.16 1638.29H1970.49C1972.34 1622.77 1972.34 1614.11 1970.49 1612.29ZM1753.31 1612.65C1750.55 1609.93 1737.62 1617.87 1732.23 1617.88C1728.64 1617.89 1726.3 1616.18 1725.22 1612.73C1702.87 1621.87 1689.66 1627.67 1685.59 1630.11C1681.51 1632.55 1680.31 1635.4 1681.98 1638.65H1753.31C1755.15 1623.13 1755.15 1614.47 1753.31 1612.65Z" clip-rule="evenodd"/><path fill="#0E143F" d="M1780.68 1114.16C1780.18 1113.46 1780.33 1112.48 1781.03 1111.97C1781.72 1111.46 1782.7 1111.62 1783.21 1112.31L1834.2 1182.25C1834.3 1182.38 1834.37 1182.53 1834.42 1182.68L1852.48 1237.91C1852.75 1238.73 1852.3 1239.61 1851.48 1239.88C1850.66 1240.15 1849.77 1239.7 1849.51 1238.88L1831.53 1183.89L1780.68 1114.16Z"/><path fill="#FFB5B9" fill-rule="evenodd" d="M1646.43 976.189C1636.34 974.572 1628.46 973.209 1622.79 972.098C1612.29 960.244 1607.24 955.92 1604.66 954.97C1602.08 954.02 1602.86 959.054 1607 970.071C1603.59 969.328 1598.51 976.683 1592.33 975.132C1583.35 972.876 1571.48 962.264 1568.08 965.338C1565.63 967.542 1572.41 974.202 1588.41 985.317C1603.76 990.883 1613.95 992.631 1618.96 990.559L1638.47 997.748L1646.43 976.189ZM2109.73 910.789L2084.87 928.763L2095.04 945.514L2116.79 928.256C2124.72 929.796 2131.96 929.615 2138.52 927.712C2148.37 924.859 2153.43 923.857 2153.38 921.678C2153.34 919.499 2138.23 921.198 2140.17 920.411C2145.48 918.258 2158.11 914.715 2157.81 911.784C2157.61 909.83 2151.06 910.191 2138.15 912.868C2152.02 907.123 2158.48 903.302 2157.53 901.405C2156.1 898.561 2138.45 904.74 2136.27 904.608C2137.76 902.316 2151.89 895.413 2149.19 892.421C2147.84 890.921 2138.17 894.175 2120.2 902.185C2122.27 890.453 2122.13 885.319 2119.78 886.783C2117.43 888.246 2114.08 896.248 2109.73 910.789Z" clip-rule="evenodd"/><path fill="#FFAA0A" fill-rule="evenodd" d="M1928.86 965.553C1947.44 993.234 1966.4 1016.34 1975.23 1019.05C1996.04 1025.44 2099.8 944.324 2107.12 938.971C2114.44 933.618 2102.01 914.848 2100.24 914.848C2045.49 944.324 2013.69 944.324 1991.05 964.043C1976.27 930.772 1964.18 867.235 1945.16 850.913C1943.53 849.509 1941.72 848.339 1939.79 847.385C1935.5 844.778 1927.11 840.257 1914.63 833.822C1910.18 831.531 1896.11 848.024 1859.22 845.022C1822.33 842.019 1829.43 826.621 1825.29 827.121C1811.81 828.748 1802.09 830.028 1797.92 834.5C1769.77 852.977 1755.83 945.988 1748.9 982.974C1712.21 979.168 1697.78 984.722 1635.65 972.195C1628.19 970.69 1624.97 978.037 1625.97 994.235C1709.06 1026.84 1758.74 1039.61 1775.01 1032.57C1766.9 1055.74 1758.59 1074.97 1765.16 1090.72C1773.05 1109.63 1906.92 1119.87 1931.22 1102.24C1955.51 1084.61 1905.19 1033.2 1910.33 1008.32C1912.75 996.616 1920.65 981.933 1928.86 965.553Z" clip-rule="evenodd"/><path fill="#0E143F" d="M1802.84 872.42C1795.43 883.188 1788.28 895.302 1781.38 908.76C1780.06 911.334 1779.07 913.903 1778.39 916.482C1775.84 926.126 1777.21 933.784 1782.21 947.297C1784.31 952.976 1784.81 954.413 1785.45 956.862C1791.53 980.409 1784.97 1015.09 1765.85 1061.02C1765.51 1061.84 1764.59 1062.22 1763.8 1061.87C1763.01 1061.51 1762.64 1060.56 1762.98 1059.74C1781.84 1014.42 1788.29 980.374 1782.43 957.697C1781.83 955.404 1781.35 954.003 1779.29 948.452C1774.07 934.341 1772.6 926.126 1775.37 915.63C1776.12 912.82 1777.19 910.028 1778.62 907.244C1785.58 893.666 1792.81 881.434 1800.29 870.547C1800.79 869.819 1801.76 869.649 1802.47 870.166C1803.17 870.684 1803.34 871.693 1802.84 872.42Z"/><path fill="#0E143F" d="M1923.66 954.744C1922.47 953.023 1919.96 954.817 1921.09 956.58C1928.54 968.166 1936.2 979.228 1943.4 988.773C1944.65 990.438 1947.09 988.553 1945.9 986.837L1923.66 954.744ZM1921.12 956.627L1943.36 988.72L1945.86 986.784C1938.71 977.306 1931.1 966.311 1923.69 954.791L1921.12 956.627Z"/><path fill="#CEF" fill-rule="evenodd" d="M812.5 284.375H1686.25C1696.61 284.375 1705 292.77 1705 303.125V893.75C1705 904.105 1696.61 912.5 1686.25 912.5H812.5C802.145 912.5 793.75 904.105 793.75 893.75V303.125C793.75 292.77 802.145 284.375 812.5 284.375Z" clip-rule="evenodd"/><path fill="#fff" fill-rule="evenodd" d="M842.5 396.875H1656.25C1662.46 396.875 1667.5 401.912 1667.5 408.125V856.25C1667.5 862.463 1662.46 867.5 1656.25 867.5H842.5C836.287 867.5 831.25 862.463 831.25 856.25V408.125C831.25 401.912 836.287 396.875 842.5 396.875Z" clip-rule="evenodd"/><path fill="#D8F4FF" d="M1249.22 757.812C1318.69 757.812 1375 701.848 1375 632.812C1375 563.777 1318.69 507.812 1249.22 507.812C1179.75 507.812 1123.44 563.777 1123.44 632.812C1123.44 701.848 1179.75 757.812 1249.22 757.812Z"/><path fill="#A1E0FF" d="M1195.31 647.656C1203.94 647.656 1210.94 640.661 1210.94 632.031C1210.94 623.402 1203.94 616.406 1195.31 616.406C1186.68 616.406 1179.69 623.402 1179.69 632.031C1179.69 640.661 1186.68 647.656 1195.31 647.656Z"/><path fill="#A1E0FF" d="M1250 647.656C1258.63 647.656 1265.62 640.661 1265.62 632.031C1265.62 623.402 1258.63 616.406 1250 616.406C1241.37 616.406 1234.38 623.402 1234.38 632.031C1234.38 640.661 1241.37 647.656 1250 647.656Z"/><path fill="#A1E0FF" d="M1304.69 647.656C1313.32 647.656 1320.31 640.661 1320.31 632.031C1320.31 623.402 1313.32 616.406 1304.69 616.406C1296.06 616.406 1289.06 623.402 1289.06 632.031C1289.06 640.661 1296.06 647.656 1304.69 647.656Z"/><path fill="#62C7FC" fill-rule="evenodd" d="M812.5 284.375H1686.25C1696.61 284.375 1705 292.77 1705 303.125V359.375H793.75V303.125C793.75 292.77 802.145 284.375 812.5 284.375Z" clip-rule="evenodd"/><path fill="#fff" d="M846.25 336.875C854.534 336.875 861.25 330.159 861.25 321.875C861.25 313.591 854.534 306.875 846.25 306.875C837.966 306.875 831.25 313.591 831.25 321.875C831.25 330.159 837.966 336.875 846.25 336.875Z"/><path fill="#fff" d="M895 336.875C903.284 336.875 910 330.159 910 321.875C910 313.591 903.284 306.875 895 306.875C886.716 306.875 880 313.591 880 321.875C880 330.159 886.716 336.875 895 336.875Z"/><path fill="#fff" d="M943.75 336.875C952.034 336.875 958.75 330.159 958.75 321.875C958.75 313.591 952.034 306.875 943.75 306.875C935.466 306.875 928.75 313.591 928.75 321.875C928.75 330.159 935.466 336.875 943.75 336.875Z"/><path fill="#00A7FF" d="M565.625 470.312V623.063C565.625 629.966 571.221 635.563 578.125 635.563H740.875C747.779 635.563 753.375 629.966 753.375 623.063V470.312C753.375 463.409 747.779 457.812 740.875 457.812H578.125C571.221 457.812 565.625 463.409 565.625 470.312Z"/><path fill="#fff" d="M571.875 470.312C571.875 466.861 574.673 464.062 578.125 464.062H740.875C744.327 464.062 747.125 466.861 747.125 470.312V623.063C747.125 626.514 744.327 629.313 740.875 629.313H578.125C574.673 629.313 571.875 626.514 571.875 623.063V470.312Z"/><path fill="#FFAA0A" d="M662.546 570.278H643.405C642.923 568.013 642.762 565.748 642.762 563.16C642.762 555.556 645.818 547.305 654.986 540.348L663.189 534.2C667.532 530.965 668.98 527.082 668.98 522.876C668.98 516.566 664.315 510.418 654.665 510.418C645.335 510.418 639.867 518.022 639.867 525.626C639.867 529.347 640.188 530.965 640.349 531.612L617.831 530.803C617.348 528.538 617.188 526.111 617.188 524.008C617.188 505.079 631.181 489.062 654.665 489.062C680.722 489.062 693.75 504.756 693.75 520.934C693.75 533.877 687.799 542.775 678.148 550.055L672.036 554.585C666.406 558.792 662.546 562.998 662.546 570.278ZM639.706 593.899C639.706 586.133 645.818 579.824 653.539 579.824C661.259 579.824 667.532 586.133 667.532 593.899C667.532 601.503 661.259 607.812 653.539 607.812C645.818 607.812 639.706 601.503 639.706 593.899Z"/><path fill="#CEF" fill-rule="evenodd" d="M1751.7 420.312H1981.42C1984.95 420.312 1987.81 423.172 1987.81 426.699V643.926C1987.81 647.453 1984.95 650.312 1981.42 650.312H1751.7C1748.17 650.312 1745.31 647.453 1745.31 643.926V426.699C1745.31 423.172 1748.17 420.312 1751.7 420.312Z" clip-rule="evenodd"/><path fill="#00A7FF" d="M1883.47 564.191L1926.49 599.861C1929.5 602.356 1933.96 601.939 1936.45 598.93C1938.95 595.921 1938.53 591.459 1935.52 588.964L1892.5 553.294C1889.49 550.799 1885.03 551.215 1882.54 554.224C1880.04 557.234 1880.46 561.696 1883.47 564.191Z"/><path fill="#62C7FC" d="M1899.22 581.845L1924.23 602.583C1928.74 606.326 1935.43 605.701 1939.18 601.187C1942.92 596.673 1942.29 589.98 1937.78 586.237L1912.77 565.499C1908.25 561.756 1901.56 562.382 1897.82 566.895C1894.08 571.409 1894.7 578.102 1899.22 581.845Z"/><path fill="#62C7FC" d="M1846.94 578.559C1878.21 578.559 1903.56 553.208 1903.56 521.936C1903.56 490.664 1878.21 465.312 1846.94 465.312C1815.66 465.312 1790.31 490.664 1790.31 521.936C1790.31 553.208 1815.66 578.559 1846.94 578.559Z"/><path fill="#F2FBFF" d="M1846.94 564.403C1823.48 564.403 1804.47 545.39 1804.47 521.936C1804.47 498.482 1823.48 479.469 1846.94 479.469C1870.39 479.469 1889.4 498.482 1889.4 521.936C1889.4 545.39 1870.39 564.403 1846.94 564.403Z"/><path fill="#01B681" fill-rule="evenodd" d="M1761.81 198.438H1910.31C1919.43 198.438 1926.81 205.825 1926.81 214.938V363.437C1926.81 372.55 1919.43 379.938 1910.31 379.938H1761.81C1752.7 379.938 1745.31 372.55 1745.31 363.437V214.938C1745.31 205.825 1752.7 198.438 1761.81 198.438Z" clip-rule="evenodd"/><path fill="#fff" fill-rule="evenodd" d="M1795.56 258.229L1803.04 250.746C1803.62 250.168 1804.52 250.058 1805.22 250.478L1811.83 254.442C1816.12 251.678 1820.95 249.667 1826.12 248.594L1828.01 241.037C1828.21 240.244 1828.92 239.688 1829.74 239.688H1840.32C1841.14 239.688 1841.85 240.244 1842.05 241.037L1843.94 248.598V248.689C1849.05 249.806 1853.81 251.838 1858.04 254.606L1858.16 254.488L1864.84 250.478C1865.54 250.058 1866.44 250.168 1867.02 250.746L1874.5 258.229C1875.08 258.808 1875.19 259.705 1874.77 260.406L1870.76 267.089L1870.6 267.247C1873.33 271.479 1875.33 276.225 1876.41 281.308H1876.65L1884.21 283.199C1885.01 283.397 1885.56 284.11 1885.56 284.927V295.51C1885.56 296.328 1885.01 297.041 1884.21 297.239L1876.65 299.129H1876.43C1875.35 304.222 1873.36 308.977 1870.63 313.218L1870.76 313.349L1874.77 320.031C1875.19 320.732 1875.08 321.63 1874.5 322.208L1867.02 329.691C1866.44 330.269 1865.54 330.38 1864.84 329.959L1858.16 325.95L1858.09 325.874C1853.84 328.655 1849.06 330.697 1843.94 331.817V331.84L1842.05 339.4C1841.85 340.193 1841.14 340.75 1840.32 340.75H1829.74C1828.92 340.75 1828.21 340.193 1828.01 339.4L1826.14 331.916C1820.94 330.84 1816.09 328.814 1811.77 326.029L1805.22 329.959C1804.52 330.38 1803.62 330.269 1803.04 329.691L1795.56 322.208C1794.98 321.63 1794.87 320.732 1795.29 320.031L1799.19 313.533C1796.35 309.197 1794.28 304.312 1793.18 299.071L1785.85 297.239C1785.06 297.041 1784.5 296.328 1784.5 295.51V284.927C1784.5 284.11 1785.06 283.397 1785.85 283.199L1793.19 281.363C1794.3 276.136 1796.37 271.265 1799.21 266.941L1795.29 260.406C1794.87 259.705 1794.98 258.808 1795.56 258.229ZM1835.25 312.547C1847.57 312.547 1857.55 302.566 1857.55 290.253C1857.55 277.941 1847.57 267.96 1835.25 267.96C1822.94 267.96 1812.96 277.941 1812.96 290.253C1812.96 302.566 1822.94 312.547 1835.25 312.547Z" clip-rule="evenodd"/><path fill="#FFB5B9" fill-rule="evenodd" d="M598.526 781.742C592.642 781.751 587.141 778.066 585.119 772.196C583.27 766.83 584.837 761.114 588.666 757.412C587.662 750.803 586.751 744.756 585.934 739.27C585.934 716.49 604.822 698.023 628.121 698.023C651.421 698.023 670.309 716.49 670.309 739.27V765.645C670.309 784.035 662.38 799.269 653.35 804.986C655.252 812.4 657.886 818.551 661.252 823.441C667.45 832.444 667.344 842.201 660.934 852.711H599.996L604.684 784.727C604.179 784.254 599.001 782.217 598.526 781.742Z" clip-rule="evenodd"/><path fill="#F97A80" d="M650 793.336C652.589 793.336 654.688 789.838 654.688 785.523C654.688 781.209 652.589 777.711 650 777.711C647.411 777.711 645.312 781.209 645.312 785.523C645.312 789.838 647.411 793.336 650 793.336Z"/><path fill="#F97A80" d="M657.813 751.148C657.813 750.285 657.113 749.586 656.25 749.586C655.387 749.586 654.688 750.285 654.688 751.148V763.338C654.688 764.122 655.269 764.785 656.046 764.887C658.948 765.271 660.13 765.884 660.13 766.163C660.13 766.787 658.613 768.264 655.46 770.113C654.715 770.55 654.466 771.507 654.902 772.251C655.339 772.996 656.296 773.245 657.041 772.809C661.144 770.402 663.255 768.347 663.255 766.163C663.255 763.91 661.314 762.657 657.813 762.003V751.148Z"/><path fill="#732213" fill-rule="evenodd" d="M632.709 744.863C628.844 746.603 625.407 746.98 625.032 745.705C624.657 744.43 627.486 741.986 631.35 740.246C635.215 738.505 638.652 738.128 639.028 739.403C639.403 740.678 636.574 743.122 632.709 744.863ZM663.581 745.698C659.274 744.568 655.998 742.595 656.263 741.29C656.529 739.985 660.235 739.843 664.541 740.973C668.847 742.102 672.124 744.076 671.858 745.381C671.593 746.686 667.887 746.828 663.581 745.698ZM639.842 757.398C638.548 757.398 637.498 756.349 637.498 755.054C637.498 753.76 638.548 752.71 639.842 752.71C641.137 752.71 642.186 753.76 642.186 755.054C642.186 756.349 641.137 757.398 639.842 757.398ZM664.842 757.398C663.548 757.398 662.498 756.349 662.498 755.054C662.498 753.76 663.548 752.71 664.842 752.71C666.137 752.71 667.186 753.76 667.186 755.054C667.186 756.349 666.137 757.398 664.842 757.398ZM594.511 756.38C593.763 755.911 590.942 755.396 588.036 758.148C584.007 745.936 585.188 738.975 585.523 732.071C586.286 716.333 604.589 691.763 635.363 694.87C666.138 697.977 668.624 718.496 666.713 721.66C664.803 724.825 659.05 728.796 651.619 729.258C646.614 729.569 636.803 728.408 622.187 725.776C620.617 731.795 618.844 735.804 616.866 737.804C615.968 738.711 613.658 740.008 612.877 740.48C611.937 741.048 596.683 736.913 596.666 737.767C596.649 738.621 611.676 742.287 611.619 743.081C611.561 743.885 611.501 744.665 611.437 745.42C611.364 746.284 596.463 742.196 596.327 742.911C596.192 743.627 610.964 747.649 610.884 748.331C609.923 756.57 608.607 762.59 606.749 762.97C603.044 763.726 600.156 757.684 594.511 756.38Z" clip-rule="evenodd"/><path fill="#F97A80" d="M603.146 766.478C598.005 761.515 593.424 762.142 590.868 768.342C590.539 769.14 590.92 770.053 591.717 770.382C592.515 770.711 593.429 770.331 593.757 769.533C595.427 765.484 597.345 765.221 600.976 768.727C601.597 769.326 602.586 769.309 603.185 768.688C603.785 768.067 603.767 767.078 603.146 766.478Z"/><path fill="#F97A80" d="M650.887 804.383C646.863 807.406 643.387 808.549 640.435 807.947C637.184 807.284 629.52 803.826 617.661 797.631C616.896 797.231 615.952 797.528 615.553 798.292C615.153 799.057 615.449 800.001 616.214 800.401C628.364 806.748 636.156 810.264 639.811 811.009C643.764 811.815 648.089 810.394 652.764 806.881C653.454 806.363 653.593 805.384 653.075 804.694C652.556 804.004 651.577 803.865 650.887 804.383Z"/><path fill="#FFB5B9" fill-rule="evenodd" d="M541.235 1549.85L573.445 1556.11L553.872 1622.26L528.117 1617.34L541.235 1549.85ZM739.683 1557.73L772.251 1553.73L774.077 1622.69L748.061 1625.97L739.683 1557.73Z" clip-rule="evenodd"/><path fill="#021768" fill-rule="evenodd" d="M655.274 1234.42L564.509 1606.05L529.688 1598.37C537.25 1454.28 551.461 1359.84 572.322 1347.45C560.993 1266.4 562.33 1178.57 576.334 1083.96L605.137 1085.41L724.382 1075.79L776.566 1343.83L775.478 1598.47L743.64 1606.05C721.234 1467.39 711.059 1383.45 728.739 1366.71C706.38 1330.75 681.892 1286.65 655.274 1234.42Z" clip-rule="evenodd"/><path fill="#021768" fill-rule="evenodd" d="M527.943 1612.29C530.704 1609.57 543.634 1617.51 549.019 1617.52C552.609 1617.54 554.948 1615.82 556.035 1612.37C578.381 1621.51 591.591 1627.31 595.665 1629.75C599.738 1632.19 600.941 1635.04 599.273 1638.29H527.943C526.102 1622.77 526.102 1614.11 527.943 1612.29ZM745.131 1612.65C747.892 1609.93 760.822 1617.87 766.207 1617.88C769.797 1617.89 772.135 1616.18 773.222 1612.73C795.569 1621.87 808.779 1627.67 812.852 1630.11C816.926 1632.55 818.129 1635.4 816.461 1638.65H745.131C743.29 1623.13 743.29 1614.47 745.131 1612.65Z" clip-rule="evenodd"/><path fill="#0E143F" d="M717.753 1114.16C718.261 1113.46 718.108 1112.48 717.411 1111.97C716.714 1111.46 715.736 1111.62 715.228 1112.31L664.235 1182.25C664.139 1182.38 664.064 1182.53 664.013 1182.68L645.961 1237.91C645.692 1238.73 646.14 1239.61 646.96 1239.88C647.78 1240.15 648.663 1239.7 648.931 1238.88L666.906 1183.89L717.753 1114.16Z"/><path fill="#FFB5B9" fill-rule="evenodd" d="M852.907 823.474C858.965 809.613 863.183 801.983 865.561 800.585C867.94 799.187 868.016 804.284 865.791 815.877C883.929 808.341 893.669 805.334 895.009 806.854C897.682 809.884 883.419 816.409 881.891 818.649C884.077 818.83 901.866 813.103 903.266 815.958C904.199 817.862 897.671 821.505 883.682 826.888C896.666 824.528 903.245 824.319 903.421 826.262C903.683 829.177 890.973 832.404 885.617 834.418C883.658 835.154 898.841 833.815 898.86 835.978C898.879 838.141 893.787 839.019 883.87 841.624C877.259 843.362 869.987 843.376 862.054 841.666L852.518 865.45L839.968 853.177L852.907 823.474ZM400.914 851.028L418.186 878.272L407.646 892.425L394.631 870.477C387.054 873.449 379.87 874.612 373.077 873.966C362.888 872.998 357.726 872.955 357.418 870.815C357.11 868.676 372.309 867.542 370.262 867.131C364.668 866.009 351.626 864.879 351.445 861.957C351.324 860.01 357.854 859.151 371.035 859.381C356.404 856.328 349.406 853.786 350.039 851.755C350.99 848.709 369.426 851.486 371.558 850.954C369.71 848.989 354.636 844.852 356.817 841.426C357.912 839.708 367.986 841.103 387.04 845.61C383.089 834.52 382.394 829.473 384.955 830.469C387.516 831.466 392.835 838.318 400.914 851.028Z" clip-rule="evenodd"/><path fill="#DB2721" fill-rule="evenodd" d="M723.757 965.184C723.437 980.12 723.192 993.942 724.921 1006.02C730.853 1047.47 744.989 1065.49 735.035 1089.36C731.989 1096.66 692.985 1115.08 682.246 1100.88C669.82 1122.38 583.895 1111.7 568.983 1100.88C559.709 1094.15 579.383 1031.84 574.24 1006.95C571.768 994.985 563.563 979.904 555.154 963.078C530.039 997.027 501.846 1028.91 490.537 1033.63C473.163 1040.89 434.113 953.706 397.195 879.491C406.927 866.759 414.079 863.534 418.65 869.817C453.948 918.328 480.441 923.536 488.536 945.071C503.21 918.649 524.838 885.126 541.599 863.372C545.717 856.089 551.325 849.705 558.207 844.479C559.902 842.999 561.381 841.954 562.603 841.411C567.666 838.188 580.286 833.208 600.462 826.472C605.693 831.347 597.695 815.636 603.089 818.442C611.101 822.612 642.447 845.897 650.223 845.559C657.998 845.22 654.58 819.375 656.603 816.111C658.047 813.781 663.681 829.52 663.452 826.472C682.17 831.711 694.095 837.641 699.229 844.262C717.882 857.601 756.159 899.205 780.579 930.539C785.318 907.959 810.697 898.528 838.224 844.901C841.789 837.957 849.341 839.984 860.878 850.984C835.638 930.261 810.252 1022.69 791.994 1018.33C780.934 1015.7 751.869 992.187 723.757 965.184Z" clip-rule="evenodd"/><path fill="#0E143F" d="M683.814 1099.06C683.323 997.501 680.947 936.643 676.655 916.231C672.372 895.863 664.45 872.168 652.89 845.135C652.541 844.318 651.618 843.949 650.829 844.31C650.04 844.672 649.683 845.626 650.032 846.443C661.512 873.29 669.368 896.785 673.601 916.918C677.826 937.007 680.199 997.814 680.689 1099.08C680.694 1099.97 681.397 1100.69 682.26 1100.69C683.123 1100.68 683.819 1099.96 683.814 1099.06Z"/><path fill="#0E143F" d="M651.6 847.397C652.46 847.314 653.091 846.526 653.011 845.637C652.931 844.749 652.169 844.095 651.31 844.178L635.329 845.721C634.862 845.767 634.44 846.026 634.178 846.428L623.239 863.226L602.771 824.061L604.556 818.999C604.852 818.16 604.434 817.232 603.624 816.926C602.813 816.621 601.916 817.052 601.62 817.891L599.595 823.636C599.441 824.071 599.475 824.552 599.688 824.959L621.718 867.112C622.276 868.181 623.732 868.254 624.388 867.247L636.356 848.869L651.6 847.397Z"/><path fill="#0E143F" d="M671.369 844.05L660.248 838.599C659.747 838.354 659.157 838.401 658.699 838.724L650.581 844.447C649.868 844.95 649.684 845.955 650.17 846.693C650.656 847.431 651.628 847.621 652.341 847.118L659.719 841.917L674.785 849.302C676.19 849.99 677.599 848.365 676.785 846.995L657.94 815.263C657.488 814.502 656.526 814.264 655.79 814.732C655.055 815.199 654.825 816.194 655.277 816.955L671.369 844.05Z"/><path fill="#0E143F" d="M645.405 922.062L649.989 948.002L639.594 967.64L621.689 960.275L618.536 948.152C618.312 947.29 617.455 946.78 616.621 947.011C615.788 947.243 615.294 948.13 615.518 948.992L618.875 961.898C619.003 962.39 619.348 962.791 619.806 962.98L639.724 971.172C640.457 971.474 641.292 971.163 641.671 970.447L652.996 949.052C653.168 948.726 653.227 948.349 653.163 947.985L648.161 919.678C647.992 918.721 647.05 918.134 646.153 918.427L612.03 929.578C611.248 929.834 610.79 930.671 610.981 931.497L612.986 940.147C613.187 941.015 614.031 941.55 614.87 941.341C615.709 941.133 616.226 940.261 616.025 939.393L614.359 932.207L645.405 922.062Z"/><path fill="#0E143F" d="M717.871 919.242C720.338 935.539 720.892 945.956 720.892 962.582C720.892 963.474 721.592 964.198 722.454 964.198C723.317 964.198 724.017 963.474 724.017 962.582C724.017 945.803 723.455 935.234 720.958 918.741C720.824 917.86 720.025 917.257 719.172 917.395C718.32 917.533 717.737 918.36 717.871 919.242Z"/><path fill="#0E143F" d="M556.541 963.628L570.315 946.891C570.874 946.211 570.795 945.191 570.138 944.612C569.481 944.034 568.494 944.115 567.935 944.795L554.162 961.533C553.602 962.212 553.682 963.232 554.339 963.811C554.996 964.39 555.982 964.308 556.541 963.628Z"/></svg>