<svg xmlns="http://www.w3.org/2000/svg" data-name="1" viewBox="0 0 4680 3120"><path fill="#d8f4f4" d="M3836.51,2483.05c0,125.32-584.21,226.95-1304.91,226.95-409.55,0-775-32.85-1014.27-84.15-181.72-39-290.59-88.71-290.59-142.8,0-125.37,584.21-227,1304.86-227,540.06,0,1003.45,57,1201.81,138.39C3799.8,2421.71,3836.51,2451.62,3836.51,2483.05Z"/><path fill="#2a6834" d="M3694.15,2055.4s224.69-331.7,331.44-196.66c0,0,44.76,88-87.59,144C3811.7,2056.18,3694.15,2055.4,3694.15,2055.4Z"/><path fill="#1e5124" d="M3949,1902.17s-141,66.13-254.8,153.23C3694.15,2055.4,3868.66,1973,3949,1902.17Z"/><path fill="#378747" d="M3474.2,2284.68s631.05-522.56,455.47-685.8C3741.61,1424,3500.82,2061.9,3474.2,2284.68Z"/><path fill="#2a7236" d="M3842.2,1697.12s-226.87,277.19-368,587.56C3474.2,2284.68,3806.61,1784.59,3842.2,1697.12Z"/><path fill="#8da64c" d="M3495,2241.91s316-359.25,440.48-253.89-106.12,255-106.12,255,109.9-38.06,120.52,17.08-126.44,125.59-294.32,117.28S3414.7,2357.89,3495,2241.91Z"/><path fill="#788e35" d="M3835.05,2094.84s-153.4,67-370.2,238C3464.85,2332.89,3654.92,2247.9,3835.05,2094.84Z"/><path fill="#788e35" d="M3811.7,2298.16s-171.14-2.57-346.85,34.73C3464.85,2332.89,3613.42,2345.37,3811.7,2298.16Z"/><path fill="#c3eae9" d="M3733.41,2394.49c-87.23,178.88-1858.79,268.63-2216.08,231.36-181.72-39-290.59-88.71-290.59-142.8,0-125.37,584.21-227,1304.86-227C3071.66,2256.1,3535.05,2313.13,3733.41,2394.49Z"/><path fill="#c2efee" d="M3448.29,1903.49c-197.48,128.7-442.45,179.31-675.66,149.35a.09.09,0,0,1-.15,0,1002.44,1002.44,0,0,1-131.49-25.6c-519.64,341.41-1454.66,150.93-1524.13-478-1.07-9.6-1.95-19.34-2.59-29.13-27.86-443.62,509.41-808.23,1040.9-771.61,1.18-1.42,2.35-2.89,3.62-4.31,344.79-423.59,1021.87-432.55,1402-94.33,121.5,108.14,212.66,251.77,252.95,428.69C3884.81,1405.28,3724.39,1726.91,3448.29,1903.49Z"/><path fill="#d8f4f4" d="M3560.78,649.83c-123.17,505.55-681.39,938.1-1399,1033.61-384.34,51.16-749.82-2.94-1045-134.23-1.07-9.6-1.95-19.34-2.59-29.13-27.86-443.62,509.41-808.23,1040.9-771.61,1.18-1.42,2.35-2.89,3.62-4.31C2503.58,320.57,3180.66,311.61,3560.78,649.83Z"/><path fill="#f5b54e" d="M2444.94,956.34v243.44c0,135-109.44,244.4-244.41,244.4H1625.86c-135,0-244.41-109.44-244.41-244.4V956.34c0-135,109.44-244.4,244.41-244.4h574.67a244.79,244.79,0,0,1,41.78,3.58C2357.39,735.31,2444.94,835.58,2444.94,956.34Z"/><path fill="#ffdb80" d="M2387.12,956.34v243.44c0,135-109.44,244.4-244.41,244.4H1568c-135,0-244.41-109.44-244.41-244.4V956.34c0-135,109.44-244.4,244.41-244.4h574.67a244.38,244.38,0,0,1,244.41,244.4Z"/><ellipse cx="1858.18" cy="934.63" fill="#f4c458" rx="204.6" ry="249.25"/><path fill="#f4c458" d="M2262.63,770.14q-4.85-16.67-11-32.6a242.57,242.57,0,0,0-84.05-24.28,229.5,229.5,0,0,0-24.87-1.33H2026.28a164.92,164.92,0,0,1,43.37,35.69c2,2.3,3.92,4.65,5.83,7,1.22,1.57,2.39,3.13,3.62,4.75a213.85,213.85,0,0,1,31,61.63,242.42,242.42,0,0,1,8.17,33.78,274.41,274.41,0,0,1-26.34,168.6c-2.15,4.21-4.4,8.27-6.75,12.28a234.36,234.36,0,0,1-38.77,49.45c-2.3,2.2-4.6,4.35-7,6.41a186.88,186.88,0,0,1-46,30.06,14.66,14.66,0,0,1-1.76.83,157.88,157.88,0,0,1-26,9c-.1,0-.24,0-.34.1a150.33,150.33,0,0,1-34,4.45,132.34,132.34,0,0,1-13.91-.44c-4.11-.34-8.17-.83-12.28-1.52l-.84-.14c-3.77-.64-7.49-1.47-11.16-2.35a6.71,6.71,0,0,0-1-.25l-3.67-1c-24.28-7.1-46-20.31-64.27-38.13-47.83-46.56-72.36-124.59-58.5-207.13,7.88-47,27.07-88.55,53.21-120.86a209.21,209.21,0,0,1,40.39-38.53c1.32-1,2.64-1.91,4-2.79a171.56,171.56,0,0,1,18-10.92H1675.87a442.25,442.25,0,0,0-40.44,98.3,467.63,467.63,0,0,0-10.38,47q-3.3,19.68-4.84,39.16a433.74,433.74,0,0,0,13.51,149.6,393.3,393.3,0,0,0,32.89,82.93q7.28,13.51,15.47,26.14c24.19,37.16,54.49,68.78,89.74,92.72a284.57,284.57,0,0,0,103.48,43.82c3.19.68,6.47,1.27,9.7,1.81,0,.09.09.09.14.09,8.23,1.38,16.5,2.4,24.73,3l3.52.29c2.79.15,5.53.3,8.32.4a286.88,286.88,0,0,0,49.79-2.6c3.08-.44,6.22-.93,9.3-1.47a297.23,297.23,0,0,0,48-12.63c2.4-.83,4.85-1.71,7.25-2.64,2.25-.88,4.5-1.76,6.75-2.69,6.22-2.5,12.34-5.24,18.41-8.13a336.75,336.75,0,0,0,40.39-23.25c2.79-1.86,5.53-3.72,8.27-5.68,2.45-1.76,4.95-3.62,7.39-5.48a361,361,0,0,0,43.87-38.87v0c56-58.06,96.92-137,112.15-227.83C2284.75,897.27,2280.2,830.26,2262.63,770.14Z"/><path fill="#f4cd6c" d="M2154.66,1304.89l-37.17,17.84a51,51,0,0,1-6.87,2.71h-.15l-8.92-81.7-6.15-56.65,65.72,6.62.05.1,18.76,39A54,54,0,0,1,2154.66,1304.89Z"/><polygon fill="#5887cc" points="1778.84 1321.32 1863.36 1325.46 1841.11 1309.02 1778.84 1321.32"/><path fill="#3473b2" d="M2095.54,1333l-37.16,17.84a51.07,51.07,0,0,1-6.87,2.72.38.38,0,0,1-.25.1,54,54,0,0,1-64.9-28.09l-9.43-19.63-14.51-30.14-55.87-116.26-13.74-28.6-13.69-28.5a54.05,54.05,0,0,1,25.28-72l37.16-17.89a54,54,0,0,1,72,25.32l12.46,25.94,49.36,102.62,26.6,55.41.05.1,18.77,39A54,54,0,0,1,2095.54,1333Z"/><path fill="#4682cc" d="M2189.34,757.8a367.32,367.32,0,0,0-21.78-44.54l-.74-1.33q-8.88-15.27-19-29.47c-47-65.5-114.16-111.51-193.71-124.83a281.68,281.68,0,0,0-32.46-3.47l-.88-.1a1.19,1.19,0,0,1-.39,0l-63-2.69-1.52-.05h-.1l8.76,5.82a296.07,296.07,0,0,0-33,7c-64.77,17.67-124.2,57.28-170.85,112.65a395.07,395.07,0,0,0-26.53,35.14,433.34,433.34,0,0,0-55.76,119.35,457.61,457.61,0,0,0-12.43,54,450.37,450.37,0,0,0-5.63,51.2,431.32,431.32,0,0,0,16.93,146.77,387.14,387.14,0,0,0,35.5,83.07c5,8.77,10.37,17.23,16,25.41,25.46,36.81,57.18,67.75,93.8,90.56a284.83,284.83,0,0,0,80.14,34.32c7.53,1.91,15.17,3.57,23,4.85a.3.3,0,0,0,.2,0,.21.21,0,0,0,.15,0,265.65,265.65,0,0,0,37.06,3.68,279.77,279.77,0,0,0,52.87-3.14c1.9-.29,3.81-.58,5.72-.93h0a296.44,296.44,0,0,0,55.22-15.27,314.46,314.46,0,0,0,51.84-25.41q6.92-4.11,13.66-8.66,8-5.29,15.72-11.16a359,359,0,0,0,41.31-36.28c.84-.83,1.72-1.71,2.55-2.59a389.92,389.92,0,0,0,27.12-31.33c42-53.85,72.4-121.07,85-196.5C2228.26,909.51,2218.13,827.61,2189.34,757.8Zm-126.59,170v.39a276.75,276.75,0,0,1-3.82,44,266.71,266.71,0,0,1-32.9,91.59c-2.1,3.58-4.26,7-6.51,10.43a226.63,226.63,0,0,1-32.26,39,199.18,199.18,0,0,1-21.93,18.36,171.63,171.63,0,0,1-50.47,25.55c-2.74.88-5.53,1.71-8.32,2.4-4.12,1-8.28,1.91-12.49,2.59a146.29,146.29,0,0,1-48,0l-.83-.14h0a150.75,150.75,0,0,1-15.81-3.63s0,0-.1,0c-87.58-25.65-141.77-131.09-122.68-245.21,9.69-57.71,36.37-107.2,72.16-141.42,23.64-22.67,51.3-38.68,80.58-46,2.59-.64,5.18-1.22,7.78-1.71h.1a130,130,0,0,1,13.8-2.06,144.25,144.25,0,0,1,38.58,1.27,147.67,147.67,0,0,1,60,24.63,175.08,175.08,0,0,1,42.24,42.29,212.46,212.46,0,0,1,16,26.63c2.45,4.9,4.75,9.89,6.85,15.08a.71.71,0,0,1,.1.3,231.55,231.55,0,0,1,9.4,27.8,244.73,244.73,0,0,1,6.66,34.56A258.09,258.09,0,0,1,2062.75,927.82Z"/><path fill="#66a4ed" d="M1892.83,1130.88l-.69.44a6.71,6.71,0,0,1,1,.25c3.67.88,7.39,1.71,11.16,2.35l.84.14c4.11.69,8.17,1.18,12.28,1.52,1.28-9.74,2.79-19.48,4.46-29.13A199.87,199.87,0,0,1,1892.83,1130.88ZM2144.26,837q-3.16-17.48-7.74-34.27a401.84,401.84,0,0,0-18.11-52.38c-2.65-6.26-5.48-12.38-8.42-18.4-1-2-2-4.07-3-6-2.4-4.75-4.89-9.4-7.54-14a339.32,339.32,0,0,0-71.27-88.5c-40.29-35.4-88.85-59.73-143.19-68.88q-13.89-2.28-27.61-3.23c-.49-.05-1-.05-1.52-.1h-.1c-1.42-.1-2.94-.15-4.35-.2-113-5.28-220.59,58-288.44,161q-3.23,4.85-6.32,9.84c-7.34,11.85-14.19,24.23-20.46,37a444.87,444.87,0,0,0-36.37,107.5c-1.13,5.24-2.11,10.53-3,15.86a448.9,448.9,0,0,0-5.58,100.46,417.29,417.29,0,0,0,30.89,136.92,368.38,368.38,0,0,0,44.45,78.72c6,8,12.29,15.81,18.9,23.2,27.17,30.55,59.28,55.42,95.46,72.8,4.94,2.44,9.89,4.65,15,6.65.59.3,1.17.49,1.76.74,5.78,2.35,11.65,4.55,17.62,6.46a277.67,277.67,0,0,0,41.61,10.28,13.55,13.55,0,0,0,1.52.29c6.86,1.13,13.66,2,20.46,2.55,7.15.64,14.25,1,21.35,1,8.52.1,17-.2,25.45-.88h.25c2.59-.2,5.19-.44,7.83-.74,6.51-.68,13-1.61,19.49-2.74a296.43,296.43,0,0,0,58.89-16.79c.54-.2,1-.44,1.56-.64,2.7-1.07,5.39-2.2,8-3.37a323.5,323.5,0,0,0,40.73-21.45,362.64,362.64,0,0,0,73.82-60.5l0,0a398.27,398.27,0,0,0,39.07-48.76,0,0,0,0,0,0-.05c5.87-8.66,11.55-17.67,16.79-26.87a437.77,437.77,0,0,0,40.34-94.48c1.91-6.47,3.67-13,5.28-19.59q3.9-15.27,6.56-31.23c.3-1.08.44-2.2.64-3.33.29-1.71.54-3.52.83-5.24.59-3.77,1.13-7.49,1.57-11.3v-.05A440.43,440.43,0,0,0,2144.26,837Zm-453.37,275.12c-19.14-20.31-34.21-45.82-44.1-74.7-13-38.14-16.94-82.05-9.35-127.33a277.93,277.93,0,0,1,6.7-29.67,256.77,256.77,0,0,1,42.64-86.2c2.79-3.68,5.63-7.2,8.67-10.63,41-47.48,97.66-73,155-63.44,4.35.73,8.66,1.61,12.87,2.74l3.77,1c.05,0,.05,0,.1,0,2.44.68,4.89,1.42,7.24,2.3a150.52,150.52,0,0,1,45.09,25.26c22.37,18,40.58,42.34,53.31,70.93a238,238,0,0,1,19.34,72.94c.29,2.35.49,4.7.68,7v.05a274,274,0,0,1,.25,38.58,267.18,267.18,0,0,1-3.28,28.05,270.88,270.88,0,0,1-9.84,40.19v.05a260.9,260.9,0,0,1-20.51,47,0,0,0,0,1,0,0,234.45,234.45,0,0,1-37.55,50.08,199.87,199.87,0,0,1-29,24.43l-.69.44a167.24,167.24,0,0,1-50.17,23.89h0a109.23,109.23,0,0,1-12.54,3.08h-.14a145.69,145.69,0,0,1-52.33.79c-4.07-.69-8.08-1.52-12-2.5a149.26,149.26,0,0,1-50.47-23.79A171.23,171.23,0,0,1,1690.89,1112.08Z"/><path fill="#3473b2" d="M2102.05,1221.89l-.05-.1-65.71-6.61,6.15,56.64,8.92,81.71h.15a51.07,51.07,0,0,0,6.87-2.72l37.16-17.84a54,54,0,0,0,25.28-72.07Z"/><path fill="#66a4ed" d="M2054.71,1253.6l-18.45-38.39-35.47-73.87-38-79.09a51,51,0,0,0-3.33-5.9,53.87,53.87,0,0,0-68.69-19.43l-37.16,17.89a54,54,0,0,0-25.27,72l13.63,28.4,36.4,75.71,33.78,70.23,21.89,45.57,1.53,3.23a54,54,0,0,0,72,25.27l37.17-17.89a54,54,0,0,0,25.27-72Z"/><path fill="#6eb4f9" d="M1637.46,910.06a275.85,275.85,0,0,1,6.66-29.68L1491.21,982.69a416.49,416.49,0,0,0,30.91,136.92l124.67-82.22C1633.82,999.25,1629.87,955.32,1637.46,910.06Z"/><path fill="#6eb4f9" d="M2028.16,623.41,1874.43,726.24c43.37,15.17,77.92,50.28,98.37,96.16L2110,731.93C2089.37,689.74,2061.58,652.78,2028.16,623.41Z"/><path fill="#6eb4f9" d="M1536.17,758.89,1851.37,551C1722,545,1599.88,628.69,1536.17,758.89Z"/><path fill="#6eb4f9" d="M1690.87,1112.07l-124.3,86.27q8.91,12.08,18.86,23.22l129-88.78A172.48,172.48,0,0,1,1690.87,1112.07Z"/><path fill="#6eb4f9" d="M1992.84,902.42v.05a275,275,0,0,1,.26,38.55L2144.26,837c-2.1-11.64-4.71-23.07-7.74-34.24Z"/><path fill="#6eb4f9" d="M1697.64,1301.73c5.79,2.36,11.68,4.57,17.63,6.46a277.84,277.84,0,0,0,41.62,10.3c.52.11,1,.16,1.49.26a279.75,279.75,0,0,0,67.51,2.72c2.61-.21,5.23-.46,7.84-.77l258.51-181.2a439.34,439.34,0,0,0,40.34-94.48c1.89-6.46,3.64-13,5.28-19.58q3.84-15.3,6.56-31.22c.25-1.07.41-2.2.61-3.33.31-1.74.57-3.53.82-5.28l-450,315.41C1696.46,1301.27,1697.07,1301.48,1697.64,1301.73Z"/><path fill="#2a6834" d="M3687.29,1466.43c-171.8-10.74-75,378-75,378s79.1-87,123.69-216.65C3782.7,1491.93,3687.29,1466.43,3687.29,1466.43Z"/><path fill="#1e5124" d="M3668.42,1552.48s-45,149.09-56.14,292C3612.28,1844.46,3667.49,1659.53,3668.42,1552.48Z"/><path fill="#328453" d="M2663.21,2013.52c-97.76-46.66-162,23.2-162,23.2s-30-32-96.2-20.9-76.61,78.71-76.61,78.71-18.41-26-48.81-23.54-41.75,32-41.75,32-25.36-68.19-111.67-55.26-89.88,110.53-89.88,110.53-88.5-66-137.75,10.77c-24.19,37.65-9.74,71.13,11.31,95.41,21.78,25.22,50.61,40.59,50.61,40.59l661.81,1.22c33.14-8.57,58.45-29.91,75.93-57.57C2746.53,2172.22,2735,2047.73,2663.21,2013.52Z"/><path fill="#429866" d="M2536.72,2252.36s-5.53-69.51-74.9-100.5-126.84,6.36-126.84,6.36c-59.33-28.39-83.12,14.84-83.12,14.84s-26.29-37.06-111.52-27.52-104.08,77.11-104.08,77.11c-62.31-12.83-102.11,12.72-126.44,41.75,21.78,25.22,50.61,40.59,50.61,40.59l661.81,1.22c33.14-8.57,58.45-29.91,75.93-57.57-12-12.24-27.91-22.91-48.86-30C2555.57,2187,2536.72,2252.36,2536.72,2252.36Z"/><path fill="#f5b54e" d="M3437,1545.41H2869.85c-96.78,0-175.26,76.92-175.26,171.79v512c0,94.87,78.48,171.79,175.26,171.79H3437c96.78,0,175.25-76.92,175.25-171.79v-512C3612.28,1622.33,3533.81,1545.41,3437,1545.41Z"/><path fill="#ffdb80" d="M3346,1545.42H2778.84c-96.78,0-175.25,76.92-175.25,171.79v512c0,94.87,78.47,171.79,175.25,171.79H3346c96.78,0,175.26-76.92,175.26-171.79v-512C3521.28,1622.34,3442.8,1545.42,3346,1545.42Z"/><path fill="#6d3f41" d="M2276.78,1605.84a27.08,27.08,0,0,0-11-.4L2087.31,1635a27.78,27.78,0,0,0-22.45,21,26.92,26.92,0,0,0-.33,10.77,27.65,27.65,0,0,0,31.79,22.77L2274.83,1660a27.61,27.61,0,0,0,23.07-25.49,27.83,27.83,0,0,0-21.12-28.68Z"/><path fill="#774849" d="M2265.77,1605.44,2087.31,1635a27.78,27.78,0,0,0-22.45,21,28.72,28.72,0,0,0,11,.34l178.52-29.56a27.71,27.71,0,0,0,22.44-21A27.08,27.08,0,0,0,2265.77,1605.44Z"/><path fill="#6d3f41" d="M2328.36,1872a27.09,27.09,0,0,0-11-.39l-186,33.82a27.78,27.78,0,0,0-22.45,21,28.15,28.15,0,0,0-.67,4.52,27.06,27.06,0,0,0,.35,6.25,27.64,27.64,0,0,0,31.78,22.77l186.09-33.82a27.61,27.61,0,0,0,23.07-25.49,27.89,27.89,0,0,0-21.12-28.68Z"/><path fill="#774849" d="M2317.35,1871.6l-186,33.82a27.78,27.78,0,0,0-22.45,21,28.77,28.77,0,0,0,11,.33L2305.91,1893a27.72,27.72,0,0,0,22.45-21A27.09,27.09,0,0,0,2317.35,1871.6Z"/><path fill="#6d3f41" d="M2369.34,2126.27a26.77,26.77,0,0,0-11,.09l-184.39,41.87a27.78,27.78,0,0,0-21.51,22,26.52,26.52,0,0,0,.14,10.77,27.65,27.65,0,0,0,32.75,21.37l184.44-41.87a27.63,27.63,0,0,0,21.93-26.48,27.27,27.27,0,0,0-.61-6.27A27.58,27.58,0,0,0,2369.34,2126.27Z"/><path fill="#774849" d="M2358.32,2126.36l-184.39,41.87a27.78,27.78,0,0,0-21.51,22,28.77,28.77,0,0,0,11-.14l184.43-41.88a27.72,27.72,0,0,0,21.52-21.92A26.77,26.77,0,0,0,2358.32,2126.36Z"/><path fill="#6d3f41" d="M2039,1441.64a26.4,26.4,0,0,0-5-11.39,25.87,25.87,0,0,0-6.22-6.09,27.17,27.17,0,0,0-42.28,27.09l178.12,986.55a27,27,0,0,0,29.75,22.16,10.93,10.93,0,0,0,1.8-.22,27.15,27.15,0,0,0,21.94-31.55Z"/><path fill="#774849" d="M2039,1441.64a26.4,26.4,0,0,0-5-11.39,10.81,10.81,0,0,0-1.8.23,27.2,27.2,0,0,0-21.93,31.59l178.12,986.5a26.35,26.35,0,0,0,5,11.39,10.93,10.93,0,0,0,1.8-.22,27.15,27.15,0,0,0,21.94-31.55Z"/><path fill="#6d3f41" d="M2291.65,1407.58a26.27,26.27,0,0,0-5.1-11.34,25.69,25.69,0,0,0-6.28-6,27.17,27.17,0,0,0-42,27.52L2418,2382.35a27,27,0,0,0,30,21.86,11,11,0,0,0,1.8-.24,27.14,27.14,0,0,0,21.61-31.77Z"/><path fill="#774849" d="M2291.65,1407.58a26.27,26.27,0,0,0-5.1-11.34,10.7,10.7,0,0,0-1.79.24,27.21,27.21,0,0,0-21.61,31.82l179.74,964.57a26.39,26.39,0,0,0,5.1,11.34,11,11,0,0,0,1.8-.24,27.14,27.14,0,0,0,21.61-31.77Z"/><path fill="#42395c" d="M2840.36,1358.05l-21.73-28.72-62.29,4.82s-217.08-.83-284.82,36.12-190.68,345.32-190.68,345.32-12.32,28.23-4,52.5h.06a42.51,42.51,0,0,0,14.67,20.45l93.49,22.83s35.3,6.87,48.9-26.77,122.34-234.78,122.34-234.78l168.14-49.58,182.67-53.89-50.55-66.82Z"/><path fill="#fbbd9d" d="M2292.89,1787.21l-10.12,33.37,89.15,23.74,15.27-30.82S2332.47,1780.34,2292.89,1787.21Z"/><path fill="#282243" d="M2349.08,1838.24l-66.29-17.63L2268.74,1841a29.84,29.84,0,0,1-11.65,10c-11.7,5.56-36.11,15.62-64.87,18.88-18.78,2.1-30.78,14.31-38.26,26.72a20.14,20.14,0,0,0-2,16.54,21,21,0,0,0,18.14,14.81l181.48,17a16.25,16.25,0,0,0,16.35-9.56c2.95-6.39,5.88-15.8,6.57-28.39.5-9-2.64-62.68-2.64-62.68Z"/><path fill="#1c1935" d="M2349.08,1838.24c-8.66,13.58-53.46,75.72-144.55,75.27-21-.09-38.25-.22-52.54-.35a21,21,0,0,0,18.14,14.81l181.48,17a16.25,16.25,0,0,0,16.35-9.56c2.95-6.39,5.88-15.8,6.57-28.39.5-9-2.64-62.68-2.64-62.68Z"/><path fill="#352f4f" d="M2756.34,1334.15s-229.52,60.23-251.32,118.18-8.89,140.49-44.86,204.74c-35.17,62.84-124.9,122.28-183.22,111a42.51,42.51,0,0,0,14.67,20.45l93.49,22.83s35.3,6.87,48.9-26.77,122.34-234.78,122.34-234.78l168.14-49.58,47.84-74.29,84.28-46.42-16.24-21.49Z"/><path fill="#fbbd9d" d="M2709.48,1950.94l13.39,32.19,83.92-38.34-7.81-33.5S2735.66,1920.48,2709.48,1950.94Z"/><path fill="#282243" d="M2848.66,1991.52c-5.35-7.26-41.89-46.7-41.89-46.7l-21.48,9.79-62.38,28.53,2.13,24.7a29.88,29.88,0,0,1-2.64,15.12c-5.5,11.73-18,35-38.08,55.81-13.16,13.55-14.66,30.61-12.54,44.94a20.11,20.11,0,0,0,9,14,21,21,0,0,0,23.42-.09l150.89-102.24a16.23,16.23,0,0,0,6.55-17.77C2859.84,2010.82,2856.13,2001.69,2848.66,1991.52Z"/><path fill="#1c1935" d="M2848.66,1991.52c-5.35-7.26-41.89-46.7-41.89-46.7l-21.48,9.79c1.95,16,6.86,92.44-63.75,150-16.23,13.26-29.66,24.16-40.77,33.13a21,21,0,0,0,23.42-.09l150.89-102.24a16.23,16.23,0,0,0,6.55-17.77C2859.84,2010.82,2856.13,2001.69,2848.66,1991.52Z"/><path fill="#42395c" d="M2538.08,1522.4c-15.37,77,104.23,357.72,104.23,357.72s3,35.08,20.88,57.69c10.14,12.83,25.11,21.68,47,17.81l94.46-45.74s35.41-20.79,14.65-79.58S2739,1621.69,2739,1621.69s20.24-1.28,14.34-18c0,0,216.78-17,286.82-44.61,16.18-6.37,28.88-16.65,38.87-28.64,33.32-40.17,36.43-99.79,36.43-99.79L2807.76,1389S2553.46,1445.48,2538.08,1522.4Z"/><path fill="#352f4f" d="M2939.6,1546.29s-161.85,33.44-190,34.35-75.18-21.92-60.86-7.26,36,22.9,36,22.9-55.41-1.06-30.91,33,94.65,160.6,67.52,227.22c-21.46,52.56-76.05,74.44-98.15,81.36,10.14,12.83,25.11,21.68,47,17.81l94.46-45.74s35.41-20.79,14.65-79.58S2739,1621.69,2739,1621.69s20.24-1.28,14.34-18c0,0,216.78-17,286.82-44.61,16.18-6.37,28.88-16.65,38.87-28.64L2941.13,1462Z"/><path fill="#3bb7b3" d="M3191.29,1002C3135,933.65,3065,905.84,3065,905.84s-124.27-3.66-169.61,30.12S2779.13,1093,2779.13,1093c53.75,22.35,78,62.13,78,62.13s-2.28,29.69-10.7,80.29c-8.13,49-46.6,79-65.74,79.28-.59,0-1.18,0-1.78,0a19.47,19.47,0,0,0-6.82.46c-12.66,3.3-15.71,19-15.71,19,28.71,4.2,69.41,25.51,117.31,90.5,5.24,7.1,10.57,14.69,16,22.89,1.12,1.62,2.17,3.29,3.28,5,56.22,86.93,118.76,105.42,132.6,124s35.6,11.42,35.6,11.42c60.69-18.07,74.66-135.15,74.66-135.15.33-13.75-1.26-31.4-3.83-50.44-8.39-62.19-27.59-138.52-27.59-138.52,59.08-35.94,147.24-36.53,147.24-36.53C3240,1151,3191.29,1002,3191.29,1002Z"/><path fill="#2d8782" d="M2972.78,907c-3.4,13.81-.17,50.25,18.14,70.54l16.65-20.32L2988,890.78S2976.17,893.22,2972.78,907Z"/><path fill="#fbbd9d" d="M3063.31,860.56l-76.14,24.63s.5,9.54-.34,26.73c-.34,7.81-1,17.21-2,27.94a53.56,53.56,0,0,0,1.54,19.53c1.3,4.72,3.23,9,6,8.89,6.08-.14,58.14-19.48,72.69-62.42l-1-28.44Z"/><path fill="#f4a589" d="M2987.17,885.19s.5,9.54-.34,26.73c2,1.42,5.23,2.39,10.61,2.2,15.18-.59,45.25-15.35,66.49-36.7l-.62-16.86Z"/><path fill="#fbbd9d" d="M3033.18,690.19s-47-14-69.74,38c-4.29,9.82-9.9,20.41-15.8,31.33a.53.53,0,0,1-.08.14c-7.35,13.65-15.15,27.8-21.37,41.61-.41.9-.8,1.8-1.19,2.68-14.22,32.5,1.22,63.12,28.53,77.13,50,25.62,99-4.23,116.75-28S3147,709.78,3033.18,690.19Z"/><ellipse cx="3035.16" cy="827.18" fill="#fc9e8b" rx="32.6" ry="29.39" transform="rotate(-31.02 3034.95 827.179)"/><path fill="#fc9e8b" d="M2947.64,759.52a.53.53,0,0,1-.08.14c-7.35,13.65-15.15,27.8-21.37,41.61a33.92,33.92,0,0,0,20.43-17.92,34.3,34.3,0,0,0,2-25.49Z"/><path fill="#263238" d="M3016.4,783c-2.53-1.53-6.22,0-8.24,3.51s-1.61,7.54.92,9.07,6.2,0,8.23-3.5S3018.92,784.58,3016.4,783Z"/><path fill="#263238" d="M2961.73,760.31c-2.42-1.12-5.73,1.06-7.4,4.87s-1.06,7.8,1.35,8.91,5.72-1.06,7.39-4.87S2964.14,761.42,2961.73,760.31Z"/><path fill="#263238" d="M3028.32,758.26a26.77,26.77,0,0,0-11.15-1.61c-2.7.3-3.92,1.16-3.57,1.92.84,1.6,6.53,2.4,12.8,4.69s11.2,5.07,12.93,4.37c.77-.35.42-1.77-1.43-3.68A25.94,25.94,0,0,0,3028.32,758.26Z"/><path fill="#263238" d="M2976.21,736.31a16,16,0,0,0-8.22-2.64c-2.19,0-3.38.68-3.33,1.43.2,1.58,4.4,2.92,8.63,5.7s7.28,5.88,8.82,5.41c.7-.26.84-1.62-.06-3.59A15.83,15.83,0,0,0,2976.21,736.31Z"/><path fill="#ff806d" d="M2976,781a1.21,1.21,0,0,0-1.66.44l-5.19,8.89a7.8,7.8,0,0,1-3.91,3.39,4.76,4.76,0,0,1-4.14-.23c-2.38-1.41-5.67-.27-7.33,2.52l-.36.63a12.61,12.61,0,0,0-1.74,8.24,8.79,8.79,0,0,0,3.7,6.16l.41.26,5.46,3.23a1.22,1.22,0,1,0,1.24-2.1l-5.46-3.23a6.33,6.33,0,0,1-2.94-4.68,10.19,10.19,0,0,1,1.43-6.64l.36-.62c1-1.64,2.76-2.39,4-1.67a7.14,7.14,0,0,0,6.22.42,10.18,10.18,0,0,0,5.17-4.45l5.19-8.89A1.26,1.26,0,0,0,2976,781Z"/><path fill="#f28775" d="M2959.74,853.24c12.05.59,18.42-14.33,18.42-14.33-12.39-6.7-32.46-12.73-32.46-12.73C2944.18,837.94,2947.69,852.64,2959.74,853.24Z"/><path fill="#3d2009" d="M3148.28,748.12c3.21-6.78,4.55-14.11,2.16-21.44-7.45-23-25.49-19.19-25.49-19.19-12.9-72-69.71-64.93-69.71-64.93-25.62-24.25-35.24,3.12-35.24,3.12-20.79-25-22.55,2.17-22.55,2.17s-6-7.31-13.83-10.89c-4.31-2-9.21-2.86-14-.86-13.6,5.69,3.07,38.26,3.07,38.26S2932.76,684.76,2938,704s28.07,14.87,28.07,14.87-10.09,8.7-5.77,16.14a9.51,9.51,0,0,0,2,2.4c1.91,1.74,5.53,2.54,10,2.71a60.43,60.43,0,0,0,8.08-.18c14.71-1,32.67-5.5,34.07-5.84a.09.09,0,0,1,.08,0c-.41.23-17.75,10.28,8,19.29,26.09,9.12,42.77,9.06,42.77,9.06s-11.85,19.1-1.6,33,6.66,38-.33,48.92c0,0,2.26,5.57,11.09-6.84l4.15,2.22,17.44,9.15s7.9-6.31,18.14-15.69c5.74-5.22,12.21-11.36,18.41-17.86,16.34-17.09,31.18-36.83,27.32-48.92C3157.16,757.69,3152.76,751.91,3148.28,748.12Z"/><path fill="#fbbd9d" d="M3112.38,828.31c-16.3-14.49-32.77.3-32.77.3l-24.37,34.65C3086.6,889.82,3133.31,846.91,3112.38,828.31Z"/><path fill="#4c260c" d="M3148.28,748.12c3.21-6.78,4.55-14.11,2.16-21.44-7.45-23-25.49-19.19-25.49-19.19-12.9-72-69.71-64.93-69.71-64.93-25.62-24.25-35.24,3.12-35.24,3.12-20.79-25-22.55,2.17-22.55,2.17s-6-7.31-13.83-10.89c-3.53,1.54-4.4,8.61,9.21,32.51,0,0-24,17.32-2.63,24.28.93.3,1.86.6,2.74.84,20.39,5.62,39.28.32,39.28.32s-7.63,16,8.92,23.05,42.4,4.14,42.4,4.14.05,11.53,14.28,15.18a33.76,33.76,0,0,0,4.1.82c13.34,1.68,21.69,3.38,25.52,8.65a14,14,0,0,1,2.37,7.49c.46,7.53-4.35,13.8-5.08,21a15.66,15.66,0,0,0,.25,5.34,9.47,9.47,0,0,0,.33,1.08,19.08,19.08,0,0,0,3,6.06c7.49,10.56,7.65,15.78,4.29,27.68,16.34-17.09,31.18-36.83,27.32-48.92C3157.16,757.69,3152.76,751.91,3148.28,748.12Z"/><path fill="#359693" d="M3050.65,894.65c-28.29,14.72-59.73,82.92-59.73,82.92,74.22-20.24,90.48-71,90.48-71S3078.94,879.93,3050.65,894.65Z"/><path fill="#359693" d="M3052.76,1102.58s6.16,56.19,8.07,126.91v.32c.5,19.5-10,37.63-26.74,47.63C3000,1297.81,2935,1328,2860.28,1319c-33.71-4.06-59.76-4.94-79.61-4.22-3,.11-5.88.28-8.61.42-12.65,3.29-15.71,19-15.71,19,28.69,4.19,69.43,25.54,117.3,90.47h0c2.38,3.23,4.79,6.59,7.21,10l1.65,2.38c2.27,3.27,4.55,6.61,6.84,10.09l.29.42h0c1.11,1.61,2.16,3.27,3.26,4.94,56.22,86.93,118.76,105.42,132.6,124s35.6,11.42,35.6,11.42c60.69-18.07,74.66-135.15,74.66-135.15.33-13.75-1.26-31.4-3.83-50.44l-13.41-75.83-14.16-62.66-30.77-158.23c15.85-117.9,117.7-103.61,117.7-103.61C3072.16,978.39,3052.76,1102.58,3052.76,1102.58Z"/><path fill="#fbbd9d" d="M3234.89,1238.34c-.87-6.29-1.39-10.1-1.39-10.1-83.19,3.26-129.14,35.61-129.14,35.61l14.16,62.66-194.64,70c-45.12,32.25-68.27,105.53-64.39,125.24s25.43,38.45,25.43,38.45a30.71,30.71,0,0,0,4.87,6h.05a30.08,30.08,0,0,0,12.81,7.49c12,3.32,16.38-5.88,16.38-5.88,4.61.67,6.77-3.72,6.77-3.72,8.13-6.06,4.21-42.88,17.64-63.69s18-47.08,18-47.08,165.32,4.46,222.9-6.82,68.93-74.86,66.42-92.86C3248.7,1339,3238.61,1265.45,3234.89,1238.34Z"/><path fill="#f4a589" d="M3104.36,1263.85l14.16,62.66c43.08-53.43,96.8-79.77,116.37-88.17-.87-6.29-1.39-10.1-1.39-10.1C3150.31,1231.5,3104.36,1263.85,3104.36,1263.85Z"/><path fill="#fbbd9d" d="M2779.14,1093l-106.6-116.41s3.7-30.19-.19-49.42c-3.13-15.22-22.65-47.18-30.65-59.76a5.42,5.42,0,0,0-9.57.65c-1,2.35-1.47,5.63-.78,10.17,2,12.84,3,19.75,3.11,20.58-1.3-.73-22.28-12.67-32.68-27.39-10.77-15.15-29.31-37.07-41.33-32.6s-25.41,56.93-3.22,92.79,71.23,68.94,71.23,68.94,20.33,51.17,45.75,106.06c1.94,4.13,3.87,8.31,5.8,12.48l.63,1.23c23.15,48.93,49.4,97.67,68.11,113.28,41.59,34.53,79.24,29.75,95.48,11.89,0,0,1.17-5.45,2.81-14.79,3-16.39,7.48-44.56,10.07-75.56C2857.11,1155.18,2832.5,1110.69,2779.14,1093Z"/><path fill="#f4a589" d="M2779.16,1093l26.74,26.17s27,10.17,51.2,36C2857.1,1155.18,2838.89,1113.16,2779.16,1093Z"/><path fill="#f4a589" d="M2635.9,902s1.23,11,.82,13.84-16.61,26.84-.95,49.07c0,0-9.72-22.14,3.88-47.86Z"/><path fill="#f4a589" d="M2574.76,930c8.39-17.74,30.29-36.68,30.29-36.68C2578.74,902.75,2574.76,930,2574.76,930Z"/><path fill="#f4a589" d="M2680.64,1120.36c23.15,48.93,49.4,97.67,68.11,113.28,41.59,34.53,79.24,29.75,95.48,11.89,0,0,1.17-5.45,2.81-14.79-7.45,6.92-20.3,14.13-41.42,14.29C2767.66,1245.27,2712.85,1185.39,2680.64,1120.36Z"/><path fill="#f4a589" d="M2930.93,1507.81c-1,6.62-3,45.17-7.42,50.74S2911,1566,2911,1566s-6.8,8-21.17.1a30.08,30.08,0,0,0,12.81,7.49c12,3.32,16.38-5.88,16.38-5.88,4.61.67,6.77-3.72,6.77-3.72,8.13-6.06,4.21-42.88,17.64-63.69s18-47.08,18-47.08-5.3,5.93-11.6,20.54S2931.89,1501.24,2930.93,1507.81Z"/><path fill="#359693" d="M2839.88,1131s10.59,11.68,17.22,24.21l18.08-123.74s9.05-63.42,27.11-90.56c0,0-28.53,36.49-36.91,72.56S2839.88,1131,2839.88,1131Z"/><rect width="18.07" height="81.56" x="3019.43" y="1052.54" fill="#1d7772" rx="7.88" transform="rotate(-74.88 3028.63 1093.265)"/><path fill="#1d7772" d="M3259.29,1221.66a10.79,10.79,0,0,0-9-9.54c-59.85-10.46-126.59,18.58-150.3,30.27a10.23,10.23,0,0,0-4.85,13.52l3,6.57a11,11,0,0,0,15.48,4.74c48.57-28,110-31,135.3-30.93a10.46,10.46,0,0,0,10.66-11.27Z"/><path fill="#1d7772" d="M2787.25,1079.29a5.59,5.59,0,0,0-5.78,1.3l-7.24,7.09,9.4,9.73c51.52,22.65,73.47,57.77,73.47,57.77l3.18-21.8C2835.78,1098.44,2798.5,1083.24,2787.25,1079.29Z"/><polygon fill="#f4c458" points="2928.41 2288.47 3305.88 2288.47 3099.88 1684.94 2928.41 2288.47"/><path fill="#f4c458" d="M3355.76,1552s-.58-2.45-1.91-6.61h-287.8c-1.37,4.16-2,6.61-2,6.61l-164.59,686.09c-6.26,26,17.87,50.37,50,50.37h63.4c24.77,0,46-14.74,50.23-34.95l51.64-245.26c3.18-15,18.95-26,37.36-26h96c18.41,0,34.17,11,37.35,26l51.7,245.26c4.21,20.21,25.41,34.95,50.18,34.95h83c32.12,0,56.25-24.33,50-50.37Z"/><path fill="#b81f1e" d="M3296.6,1552s-25.23-107.86-145.82-107.86h-98.15l22,18.23C3018.79,1493.16,3005,1552,3005,1552L2840.36,2238.1c-6.25,26.07,17.86,50.37,50,50.37h63.37c24.77,0,46-14.74,50.21-34.93l51.67-245.25c3.17-15,18.94-26,37.37-26h96c18.44,0,34.21,11,37.37,26L3278,2253.54c4.25,20.19,25.44,34.93,50.22,34.93h82.95c32.13,0,56.25-24.3,50-50.37Z"/><path fill="#dd333c" d="M3337.18,2084.6l-8.86-36.91L3314,1987.82l-38.77-161.65L3210,1554.28l-.54-2.25s-9.2-39.31-43-70.49a133.3,133.3,0,0,0-23.54-17.38h-.05a133.29,133.29,0,0,0-25.61-11.7c-15.32-5.14-33-8.28-53.55-8.28C2943,1444.18,2917.8,1552,2917.8,1552l-20.17,84-11.7,48.91-15.08,62.81-34,141.86v.05l-83.62,348.46c-5.63,23.35,13.12,45.28,40.24,49.59a58.74,58.74,0,0,0,9.74.78h82.93c24.77,0,46-14.74,50.23-34.95l27.12-128.75L2988,2008.28c3.14-15,18.9-26,37.36-26h76.41a46.11,46.11,0,0,1,9.4,1c14.2,3,25.36,12.63,28,25l26.05,123.66,12.87,61.24,8.76,41.66,4,18.7c4.26,20.21,25.46,34.95,50.23,34.95H3324c32.17,0,56.25-24.33,50-50.37Z"/><path fill="#e53841" d="M3166.38,1481.54l-295.53,266.21-34,141.86L3210,1554.28l-.54-2.25S3200.21,1512.72,3166.38,1481.54Z"/><path fill="#e53841" d="M2897.63,1636l-11.7,48.91,256.86-220.78a133.29,133.29,0,0,0-25.61-11.7Z"/><path fill="#e53841" d="M2803.19,2288.49h82.93c24.77,0,46-14.74,50.23-34.95l27.12-128.75-170,162.92A58.74,58.74,0,0,0,2803.19,2288.49Z"/><path fill="#e53841" d="M3111.21,1983.26c14.2,3,25.36,12.63,28,25l26.05,123.66L3314,1987.82l-38.77-161.65Z"/><polygon fill="#e53841" points="3178.13 2193.18 3186.89 2234.84 3337.18 2084.6 3328.32 2047.69 3178.13 2193.18"/><path fill="#b81f1e" d="M3068.33,1662.47a4.6,4.6,0,0,0-9,.1l-40.93,196.79h95.66L3099,1794.45Z"/><polygon fill="#f4c458" points="3085.66 1859.36 3114.1 1859.36 3099.02 1794.45 3085.66 1859.36"/><path fill="#2a6834" d="M1118.14,1980.76s-30.65,60.3,60,98.64c86.5,36.59,167,36,167,36S1191.26,1888.27,1118.14,1980.76Z"/><path fill="#1e5124" d="M1345.16,2115.45c-78-59.65-174.52-104.95-174.52-104.95C1225.63,2059,1345.16,2115.45,1345.16,2115.45Z"/><path fill="#378747" d="M1183.85,1802.77c-120.27,111.81,312,469.73,312,469.73C1477.58,2119.91,1312.65,1683,1183.85,1802.77Z"/><path fill="#2a7236" d="M1495.81,2272.5c-96.66-212.59-252-402.44-252-402.44C1268.13,1930,1495.81,2272.5,1495.81,2272.5Z"/><path fill="#2a6834" d="M1352.5,2255.73l-163.11-103.11s-59.37-23.13-80,12.49,35,85.45,35,85.45-100.61-17.33-115.61,49.54,91.86,141,288.72,81.42S1352.5,2255.73,1352.5,2255.73Z"/><path fill="#8da64c" d="M1179.84,2069.3c-85.26,72.17,72.68,174.68,72.68,174.68s-75.27-26.06-82.54,11.7,86.6,86,201.59,80.33,165-13.37,110-92.81C1481.53,2243.2,1265.1,1997.14,1179.84,2069.3Z"/><path fill="#788e35" d="M1502.22,2305.51c-148.5-117.14-253.57-163-253.57-163C1372,2247.3,1502.22,2305.51,1502.22,2305.51Z"/><path fill="#788e35" d="M1264.64,2281.73c135.82,32.33,237.58,23.78,237.58,23.78C1381.86,2280,1264.64,2281.73,1264.64,2281.73Z"/><path fill="#6b2c2c" d="M1811.14,2342.68l21,117.87s183.82-8,232.93-35.55,77-84.33,39.91-137.41C1998.53,2135.32,1811.14,2342.68,1811.14,2342.68Z"/><path fill="#fefefe" d="M1927.57,2399.91a242.55,242.55,0,0,0-32.09-24.95,208.21,208.21,0,0,0-43.42-22.15c-42.59-15.28-66.17,29.73-66.17,29.73s-59.69,87.93,0,99.2c17.37,3.24,43.69,2.53,72.21-.66,69.36-7.91,152-30.72,151.8-47.59C2009.73,2409.69,1927.57,2399.91,1927.57,2399.91Z"/><path fill="#f4eaea" d="M1785.89,2382.54s-59.69,87.93,0,99.2c17.37,3.24,43.69,2.53,72.21-.66-2.47-11.54-3.79-28.25-.55-51,4.73-33.63,24.63-48.69,37.93-55.12a208.21,208.21,0,0,0-43.42-22.15C1809.47,2337.53,1785.89,2382.54,1785.89,2382.54Z"/><path fill="#7b3838" d="M1442.07,2280.43s-9.45,1.21-24,4.34c-19.62,4.18-48.59,11.76-75.68,24.46-28.19,13.24-54.3,31.87-65.9,57.81-30.88,69.14-25.33,194,117.12,210.88s416.26-86.18,416.26-86.18,29-76.61-8.74-122.22S1442.07,2280.43,1442.07,2280.43Z"/><path fill="#6b2c2c" d="M1342.43,2309.23s-11.21,71.22,33.69,90.68,162.62,6.81,162.62,6.81l64.39,19.71a35.14,35.14,0,0,0,23.52-1.06l32.94-13.43-241.48-127.17C1398.49,2289,1369.52,2296.53,1342.43,2309.23Z"/><path fill="#282243" d="M1523.58,1816.45l-80.56-6.59-112.56-9.24a62.3,62.3,0,0,0-13.36,11.72c-14.7,16.73-32.22,52.05,1.47,109.85,0,0-23.72,61.47,11.89,86.31a41,41,0,0,0,14.7,6.48c33.13,7.66,70.53-24.84,70.53-24.84s80,32.39,121.92-45.3c29.07-53.69,11.21-94.48-2.54-114.59A84.62,84.62,0,0,0,1523.58,1816.45Z"/><path fill="#181530" d="M1646.54,1602.62l-29.44,39.52s-25.17,174.33,45.12,101.31S1646.54,1602.62,1646.54,1602.62Z"/><path fill="#282243" d="M1546.11,1682.37v-.12a96.9,96.9,0,0,0-10.87-21.91c-34.14-50.71-99.66-26.37-99.66-26.37a136.77,136.77,0,0,0-55,10.31c-25.47,10.59-53,31.89-66,74.48-11.71,38.25-8.78,69.41,2.48,93.58,11.44,24.61,31.5,42,53.52,52.33a121.82,121.82,0,0,0,31.67,9.92c38.42,6.42,100.73,5.8,132.78-44.34,13.69-21.46,21.86-52,20.17-95.15C1554.4,1713.63,1551.13,1696.28,1546.11,1682.37Z"/><path fill="#181530" d="M1535.24,1660.34c-4,5.29-8.9,8.62-16.28,9.13-36.92-1-77.51,27.78-51.49,83.32,24.67,72.33-78.43,55.26-96.85,111.88-24.71,65.9,34.61,113.61-25.46,150.31,33.13,7.66,70.53-24.84,70.53-24.84,75.38,38.24,181-66.16,119.38-159.89,23.57-29.43,25.42-112.31,10-153.91,44.39-5.64,29.75-26.14,37.07-61.58,7-34,36.06-12.17,38.48-10.31C1575,1558.8,1552.23,1628.56,1535.24,1660.34Z"/><path fill="#e54a64" d="M1909.32,1933.12l-12.9,62.59c-9.75-5.41-19.44,0-19.44,0-3.72-.45-24.34-25-49.57-54.87l-.06-.11c-33.75-40-75.61-89.58-95.6-103.78-34.88-24.84-57.13-31.77-57.13-31.77l20.51,149.52,22.59,164.9s81.57,80,213.18,95.49c30.19,3.55,52.33-6,68.45-23h.05c54.37-56.84,41.58-196.39,41.58-196.39C1952.47,1990.3,1909.32,1933.12,1909.32,1933.12Z"/><path fill="#db284e" d="M1813.77,2137.91c-55-51.78-59.38-106.76-63.66-147.77s-45-93.86-45-93.86l-10,58.42,22.59,164.9s81.57,80,213.18,95.49c30.19,3.55,52.33-6,68.45-23C1933.66,2225.79,1868.76,2189.74,1813.77,2137.91Z"/><path fill="#e54a64" d="M1702.51,1890.93c-8.62-26.43-27.89-85.75-27.89-85.75-6.93-1.86-13.52-3.55-19.83-5.07-71.61-17.52-106-17.13-106-17.13-69,17.52-119.55,62.26-146.36,91.21a106,106,0,0,0-18.14,26.82,104,104,0,0,0-9,29.52c-5.63,38.2-12.85,109.18-5,191.21,11.89,123,19.44,154.31,42.09,203.88s118.7,63.66,202.81,36.68c0,0,15.15-56.9-18-109.58l135.43-19.26s7.61-208.23,4.34-244.73S1702.51,1890.93,1702.51,1890.93Z"/><path fill="#db284e" d="M1548.76,1783c-69,17.52-119.55,62.26-146.36,91.21a106,106,0,0,0-18.14,26.82c12.28,3,32.34-14.76,71.71-28.45,47.44-16.56,71.16,5.75,115.16-5.75s49.69-41,49.69-41c22.87-10.42,34-25.69,34-25.69C1583.18,1782.59,1548.76,1783,1548.76,1783Z"/><path fill="#c62246" d="M1585.52,1805.18c5,9.13,18.4,28.35,24.68,64.88,0,0,12.08-35.63-14.27-75.9S1580.48,1796.05,1585.52,1805.18Z"/><path fill="#b2163f" d="M1521,1770.65c-19.78,2.29-22.84,12.94-22.84,12.94l13.67,11.83,12-3.06S1539,1768.57,1521,1770.65Z"/><path fill="#f4a589" d="M1589.21,1787c-13.5-11.5-69.69-49.27-69.69-49.27l-4.28,50.9s-9.79,10.34,8.85,40.81c29.49,48.18,67.44,61.19,80.7,52.5,18.66-12.23-14.55-66.51-14.55-66.51Z"/><path fill="#fbbd9d" d="M1671.92,1709.22c-3.94-15.44-9.47-31.54-14.62-47a.88.88,0,0,1-.06-.17c-4.13-12.38-8-24.38-10.71-35.34-14.17-58-65.42-52-65.42-52-121.59-.31-82,134.34-68,162.15s55,63.1,116,50.18c31.6-6.71,52.4-38.53,43.54-74.8C1672.42,1711.22,1672.18,1710.22,1671.92,1709.22Z"/><ellipse cx="1554.25" cy="1716.34" fill="#fc9e8b" rx="30.93" ry="34.31" transform="rotate(-49.07 1554.375 1716.399)"/><path fill="#fc9e8b" d="M1657.24,1662l-.69-1.89a36.8,36.8,0,0,0,15.37,49.07c-3.94-15.44-9.47-31.54-14.62-47A.88.88,0,0,1,1657.24,1662Z"/><path fill="#263238" d="M1571.62,1671c-3.1,1.21-4.35,5.65-2.77,9.9s5.36,6.71,8.46,5.5,4.35-5.65,2.78-9.9S1574.72,1669.82,1571.62,1671Z"/><path fill="#263238" d="M1636.78,1656.39c-2.89.77-4.34,5.09-3.23,9.65s4.37,7.61,7.27,6.84,4.35-5.09,3.23-9.64S1639.68,1655.62,1636.78,1656.39Z"/><path fill="#263238" d="M1575.89,1641.56a30.2,30.2,0,0,0-12.7-.37,29.19,29.19,0,0,0-11.75,4.46c-2.43,1.76-3.1,3.27-2.3,3.82,1.77,1.1,7.77-1.19,15.21-2.35,7.41-1.33,13.88-1.12,15.13-2.73C1580,1643.62,1578.83,1642.42,1575.89,1641.56Z"/><path fill="#263238" d="M1635,1625.57a18.16,18.16,0,0,0-9.65,1.34,17.81,17.81,0,0,0-7.7,5.88c-1.39,2-1.51,3.56-.77,4,1.62.83,5.54-2.19,10.85-4.3,5.23-2.27,10.16-2.94,10.69-4.66C1638.62,1627,1637.42,1626,1635,1625.57Z"/><path fill="#ff806d" d="M1642.54,1697.84c-1.28-3.27-4.58-5-7.37-4a5.1,5.1,0,0,1-4.44-.48,8.38,8.38,0,0,1-3.58-4.3l-4-10.37a1.32,1.32,0,0,0-1.7-.76,1.37,1.37,0,0,0-.76,1.7l4,10.38a11.06,11.06,0,0,0,4.72,5.64,7.73,7.73,0,0,0,6.7.64c1.44-.55,3.21.56,4,2.48l.28.72a10.91,10.91,0,0,1,.35,7.32,6.76,6.76,0,0,1-4,4.48l-6.37,2.48a1.31,1.31,0,0,0,.95,2.45l6.38-2.48.48-.2a9.49,9.49,0,0,0,5-5.92,13.62,13.62,0,0,0-.4-9.08Z"/><path fill="#282243" d="M1599.12,1535.27s-17.13-30.43-97.86-19.33-96.28,85.18-96.28,85.18c-18.59,11.49-29.77,22.89-29.54,42.56.45,30.19,14.48,54.15,43.55,67.27a96.4,96.4,0,0,0,30.82,8.4c30.76,2.87,50.19-12,50.19-12,34.26,0,36.34-23,35.38-34.31v-.12a36.64,36.64,0,0,0-1-5.91c44.39-5.63,29.74-26.14,37.07-61.58,7-34,36-12.17,38.48-10.31l.17.17c18-16.17,35.15,26.65,35.15,26.65a175,175,0,0,0,1.3-19.32C1647,1533.49,1599.12,1535.27,1599.12,1535.27Z"/><path fill="#fbbd9d" d="M1474,1703.53c-25.06,15.49,15.59,68.44,52.91,46.58l-19-40.34S1493.51,1691.45,1474,1703.53Z"/><path fill="#181530" d="M1610,1594.31c18-16.17,36.58,32.39,36.58,32.39.85-6.93-.18-19.1-.13-25.07C1639.3,1586.31,1626.35,1569,1610,1594.31Z"/><path fill="#db284e" d="M1571.15,2218.84H1547.9a11.7,11.7,0,0,1-11.63-10.07c-4-28.34-16.86-111.95-39.69-192.62-28-99.13-93.85-119.87-93.85-119.87,62,51.66,78.75,111.84,97.27,205.69s-27.51,146.72-27.51,146.72,4-.72,38.84-14,46-7.2,56.81-5.76,29.13,23.79,29.13,23.79A127.27,127.27,0,0,0,1571.15,2218.84Z"/><path fill="#db284e" d="M1877,1995.71c-3.72-.45-24.34-25-49.57-54.87l43.49,75.32c-2.14,34.26,14.42,54.88,14.42,35.5s15.1-44.62,15.1-44.62l8.9-73.92-12.9,62.59C1886.67,1990.3,1877,1995.71,1877,1995.71Z"/><path fill="#c62246" d="M1534.71,1830.64c-16.41-32.82-28.1-65.28-36.51-47.05a28.77,28.77,0,0,0-1,20.37c6.7,22,29,75.87,88.32,79.14C1585.52,1883.1,1553.46,1868.16,1534.71,1830.64Z"/><path fill="#db284e" d="M1644.5,2252.7c-39,20.23,93.36,0,93.36,0l-16.55-106.85S1683.55,2232.47,1644.5,2252.7Z"/><path fill="#fbbd9d" d="M1618,2344.94l99-41.59v-76.24l-119.75,25.59C1619.92,2301.3,1618,2344.94,1618,2344.94Z"/><polygon fill="#4aa1b5" points="1988.81 2077.4 1965.8 2081.32 1965.76 2081.32 1837.06 2103.25 1788.2 2111.57 1705.03 2125.76 1679.57 2280.9 1664.64 2372.05 1663.07 2381.5 1793.34 2353.6 1817.13 2348.46 1845.62 2342.39 1845.67 2342.39 1896.19 2331.52 1965.9 2316.59 1989.69 2311.5 2018.67 2305.28 2029.64 2248.44 2029.64 2248.39 2038.6 2201.79 2038.6 2201.74 2064.01 2069.96 2065.08 2064.38 2019.02 2072.21 1988.81 2077.4"/><polygon fill="#5bb5c4" points="1845.67 2342.39 1896.19 2331.52 2064.01 2069.96 2065.08 2064.38 2019.02 2072.21 1845.67 2342.39"/><polygon fill="#5bb5c4" points="1679.57 2280.9 1664.64 2372.05 1837.06 2103.25 1788.2 2111.57 1679.57 2280.9"/><polygon fill="#5bb5c4" points="1965.76 2081.32 1793.34 2353.6 1817.13 2348.46 1988.81 2077.4 1965.8 2081.32 1965.76 2081.32"/><polygon fill="#5bb5c4" points="1989.69 2311.5 2029.64 2248.44 2029.64 2248.39 2038.6 2201.79 1965.9 2316.59 1989.69 2311.5"/><polygon fill="#3598a8" points="1690.62 2119.59 1705.04 2125.79 2065.06 2064.38 2050.94 2059.13 1690.62 2119.59"/><polygon fill="#288993" points="1646.81 2381.52 1663.09 2381.52 1705.04 2125.79 1690.62 2119.59 1646.81 2381.52"/><path fill="#52b1c1" d="M1660.2,2396.33l354.08-76.82a5.57,5.57,0,0,0,4.37-5.52v-8.71l-355.56,76.24Z"/><path fill="#288993" d="M1545.67,2352.33v12.55a1.44,1.44,0,0,0,1.06,1.4l110.87,30.15a4.35,4.35,0,0,0,5.49-4.19v-10.72l-115.61-30.58A1.44,1.44,0,0,0,1545.67,2352.33Z"/><polygon fill="#107075" points="1647.49 2377.39 1655.91 2327.09 1547.48 2350.94 1647.49 2377.39"/><path fill="#db284e" d="M2041,1995.71c-65.12-62.39-131.66-62.59-131.66-62.59C1968.21,2003.4,2041,1995.71,2041,1995.71Z"/><path fill="#fbbd9d" d="M1920.55,1944.83c31.28,36.68,72.44,44.73,72.44,44.73l1.16-82.58-63.89-29.56Z"/><path fill="#fbbd9d" d="M1936.51,1783c-16.88,11.24-20.93,50.18-6.25,94.45l63.89,29.56s24.16-32.15,24.5-57.46a85.83,85.83,0,0,0-12.25-44.34S1953.38,1771.73,1936.51,1783Z"/><path fill="#f4ab8c" d="M1994.15,1812.51l-54.57-12.63-11.78,22.46,30.61,40s23.72,9.37,32.78,4.69,11.56-36.25,10.93-42.5S1994.15,1812.51,1994.15,1812.51Z"/><path fill="#fbbd9d" d="M1947.13,1697.65c-12.43,3.23-20.36,96-20.36,96,6.12.44,12.77-4.55,17.77-9.45a77.3,77.3,0,0,0,8-9.2l.73-11.41,3.09-48.51S1959.57,1694.37,1947.13,1697.65Z"/><path fill="#f4ab8c" d="M1934.75,1784.25h9.79a77.3,77.3,0,0,0,8-9.2l.73-11.41C1938.07,1767.32,1934.75,1784.25,1934.75,1784.25Z"/><path fill="#f4ab8c" d="M2014,1802.31c-3.13-12.48-38.77-31.52-52.48-34.66s-26.77,16.6-26.77,16.6c-.15.73-.25,1.47-.35,2.2-5.23,38.53,57.92,56.79,67.81,54.93,9-1.67,13.75-21.2,12.53-34.37A31.09,31.09,0,0,0,2014,1802.31Z"/><path fill="#fbbd9d" d="M1961.52,1767.65c-13.75-3.13-26.77,16.6-26.77,16.6-.15.73-.25,1.47-.35,2.2,4.8,32.36,58.7,47.59,67.81,45.87,7-1.27,11.5-13.66,12.53-25.31a31.09,31.09,0,0,0-.74-4.7C2010.87,1789.83,1975.23,1770.79,1961.52,1767.65Z"/><path fill="#fbbd9d" d="M1994.13,1805.2s-19.19-11-36.77-6.12-36,31.63-36,31.63c-.83,18.35,8.91,46.7,8.91,46.7s.64,7.44,12.83,15.57,32,5.14,37.2-20.32a37.28,37.28,0,0,0,.79-6.8v-.1c.78-21.88-16.11-37.16-16.11-37.16l5-11.6,13.75-.59c16.5-2.05,11.16-10.23,10.48-11.06A.39.39,0,0,1,1994.13,1805.2Z"/><path fill="#eda085" d="M1987.42,1813.92a162.48,162.48,0,0,1-19.59.79,1.3,1.3,0,0,0-1.11.63l-7.48,12.44a1.65,1.65,0,0,0,.48,2.24c4.55,3,19.39,14.52,21.34,35.74.68-19-12-33-15.32-36.39a1.65,1.65,0,0,1-.33-1.83l4.21-9.79a1.29,1.29,0,0,1,1.14-.78l12.94-.56c16.5-2.05,11.16-10.23,10.48-11.06C1994.42,1806.43,1995.6,1812.89,1987.42,1813.92Z"/><path fill="#f28775" d="M1611,1740.09s6.37,14.93,18.42,14.33,15.56-15.29,14-27.05C1643.49,1727.37,1623.42,1733.39,1611,1740.09Z"/><rect width="481" height="176.23" x="647.12" y="1461.36" fill="#1d7772" rx="73.28"/><path fill="#44a8a7" d="M1267.84,1611.09l-87.23-51.36v-21.49a76.87,76.87,0,0,0-76.86-76.9H776.49a76.87,76.87,0,0,0-76.86,76.9v22.47a76.86,76.86,0,0,0,76.86,76.86h327.26a76.55,76.55,0,0,0,59.82-28.64l101.87,9.5A4,4,0,0,0,1267.84,1611.09Z"/><circle cx="842.24" cy="1554.33" r="25.48" fill="#fefefe"/><circle cx="939.73" cy="1554.33" r="25.48" fill="#fefefe" transform="rotate(-22.5 939.718 1554.318)"/><circle cx="1037.22" cy="1554.33" r="25.48" fill="#fefefe"/><path fill="#ef863f" d="M3306.38,916.23a7.11,7.11,0,0,0,1.68,13.54l82,13.33-7.95-59.64Z"/><path fill="#b81f1e" d="M2602.29,525a23.54,23.54,0,0,0-25.59-22.71l-34.88,3.05A23.54,23.54,0,0,0,2520.55,532l24.14,174a23.55,23.55,0,0,0,25.38,20.22l16.26-1.42a23.55,23.55,0,0,0,21.49-24.2Z"/><path fill="#da2326" d="M2585.51,526.44a23.55,23.55,0,0,0-25.59-22.72l-34.88,3a23.55,23.55,0,0,0-21.27,26.7l24.14,174a23.56,23.56,0,0,0,25.38,20.22l16.26-1.42A23.55,23.55,0,0,0,2591,702Z"/><ellipse cx="2576.98" cy="775.13" fill="#b81f1e" rx="32.18" ry="31.89" transform="rotate(-5 2577.454 775.256)"/><rect width="11.98" height="63.79" x="2565.02" y="743.76" fill="#b81f1e" transform="rotate(-5 2569.876 775.384)"/><path fill="#da2326" d="M2562.26,744.41a31.89,31.89,0,1,0,34.84,29A32,32,0,0,0,2562.26,744.41Z"/><path fill="#e06d20" d="M1184,1121.5a21.65,21.65,0,0,0-28.28-13.78l-30.13,11.33a21.65,21.65,0,0,0-12.23,28.91l64.43,148a21.64,21.64,0,0,0,27.47,11.63l14-5.28a21.67,21.67,0,0,0,13-26.75Z"/><path fill="#ef863f" d="M1169.51,1127a21.66,21.66,0,0,0-28.29-13.79l-30.13,11.33a21.67,21.67,0,0,0-12.23,28.91l64.43,148.06a21.66,21.66,0,0,0,27.48,11.62l14-5.28a21.65,21.65,0,0,0,13-26.75Z"/><ellipse cx="1223.49" cy="1349.28" fill="#e06d20" rx="29.59" ry="29.32" transform="rotate(-20.61 1223.686 1349.436)"/><rect width="11.02" height="58.65" x="1212.83" y="1321.89" fill="#b81f1e" transform="rotate(-20.61 1218.51 1351.336)"/><ellipse cx="1213.18" cy="1353.15" fill="#ef863f" rx="29.59" ry="29.32" transform="rotate(-20.62 1212.953 1352.977)"/><path fill="#cc234f" d="M3464.69,1401.21a28.7,28.7,0,0,0-22.42-1.62,27.51,27.51,0,0,0-16.58,14.73q-6,12.36-1.4,23.06a30.4,30.4,0,0,0,15.2,15.84A29.32,29.32,0,0,0,3461,1455q11.19-3.16,17.1-15.34a28.4,28.4,0,0,0-13.36-38.48Z"/><path fill="#cc234f" d="M3611.28,1222.76q-14.81-18.66-40-30.88-27.15-13.16-52.89-11.88t-44.58,13.09q-18.83,11.82-26.83,28.35-3.87,8-.5,18.12a24.47,24.47,0,0,0,13.11,14.83q16.51,8,32-8.78,15.36-15.75,29.08-21t32.87,4q16.33,7.92,22.06,22.5a34.18,34.18,0,0,1-1,28.5,29.59,29.59,0,0,1-9.8,11.58,55,55,0,0,1-13.69,7q-7.38,2.55-23.22,6.91a305.29,305.29,0,0,0-29.49,9.44,71.32,71.32,0,0,0-21.1,13q-9.72,8.51-16.79,23.12-5.65,11.65-2.33,20.56a23.51,23.51,0,0,0,12.35,13.29q17.4,8.43,29.47-8.06,6-7.59,8.64-10.52a40.47,40.47,0,0,1,6-5.48,42.68,42.68,0,0,1,8.93-4.91,133.47,133.47,0,0,1,14.07-4.89q30.67-8.77,42.85-12.86a87.94,87.94,0,0,0,23.58-12.31q11.4-8.22,18.56-23a69,69,0,0,0,6.33-39.89Q3626.08,1241.42,3611.28,1222.76Z"/><rect width="21.37" height="21.87" x="3445.95" y="1232.54" fill="#ce2e49" transform="rotate(-77.03 3456.458 1243.533)"/><rect width="21.37" height="21.87" x="3519.97" y="1179.18" fill="#ce2e49" transform="rotate(-77.03 3530.477 1190.178)"/><rect width="9.5" height="22.01" x="3461.37" y="1368.37" fill="#ce2e49" transform="rotate(-77.03 3465.923 1379.431)"/><rect width="9.5" height="22.01" x="3440.26" y="1389.68" fill="#ce2e49" transform="matrix(.22 -.97 .97 .22 1306.67 4443.3)"/><rect width="9.5" height="22.01" x="3431.42" y="1437.39" fill="#ce2e49" transform="rotate(-77.03 3435.981 1448.45)"/><path fill="#ef4864" d="M3589.7,1217.79q-14.8-18.68-40-30.88-27.15-13.15-52.9-11.88t-44.57,13.09q-18.83,11.82-26.83,28.35-3.87,8-.51,18.12a24.52,24.52,0,0,0,13.11,14.83q16.53,8,32-8.79,15.36-15.75,29.09-21t32.86,4q16.35,7.92,22.07,22.5a34.18,34.18,0,0,1-1,28.5,29.59,29.59,0,0,1-9.8,11.58,55.39,55.39,0,0,1-13.7,7q-7.36,2.55-23.21,6.91a302.51,302.51,0,0,0-29.49,9.44,71.49,71.49,0,0,0-21.11,13q-9.7,8.51-16.78,23.12-5.65,11.65-2.34,20.56a23.53,23.53,0,0,0,12.36,13.29q17.4,8.43,29.46-8.06,6-7.61,8.65-10.53a41,41,0,0,1,6-5.48,42.88,42.88,0,0,1,8.93-4.91,132.9,132.9,0,0,1,14.07-4.88q30.68-8.77,42.85-12.86a88.22,88.22,0,0,0,23.58-12.31q11.38-8.22,18.56-23a69,69,0,0,0,6.33-39.89Q3604.48,1236.45,3589.7,1217.79Z"/><path fill="#ef4864" d="M3443.1,1396.23a28.76,28.76,0,0,0-22.41-1.62,27.54,27.54,0,0,0-16.59,14.74q-6,12.35-1.39,23.06a30.45,30.45,0,0,0,15.19,15.84,29.4,29.4,0,0,0,21.47,1.81q11.19-3.16,17.1-15.35a28.4,28.4,0,0,0-13.37-38.48Z"/><path fill="#336eb5" d="M2699.91,759.27a28,28,0,0,0-21.87.64,26.81,26.81,0,0,0-14.62,15.9q-4.58,12.57.92,22.48a29.64,29.64,0,0,0,16.29,13.85,28.62,28.62,0,0,0,21-.37q10.53-4.17,15.05-16.55a27.65,27.65,0,0,0-16.74-36Z"/><path fill="#336eb5" d="M2824.31,572q-16.18-16.62-41.81-26-27.6-10.07-52.41-6.29t-41.88,17.08q-17.09,13.31-23.2,30.1-3,8.13,1.3,17.6a23.86,23.86,0,0,0,14.16,13.08q16.8,6.12,30.09-11.67,13.33-16.77,26.1-23.23t32.23.64q16.62,6,23.59,19.62a33.24,33.24,0,0,1,1.82,27.7A28.82,28.82,0,0,1,2786,642.8a54.13,54.13,0,0,1-12.58,8.14q-6.88,3.19-21.8,9A299.74,299.74,0,0,0,2723.93,672a69.52,69.52,0,0,0-19.16,14.65q-8.57,9.2-14,24-4.34,11.85-.24,20.15a22.94,22.94,0,0,0,13.28,11.65q17.68,6.45,27.75-10.72,5.1-7.95,7.33-11a39.48,39.48,0,0,1,5.26-5.9,41.29,41.29,0,0,1,8.16-5.64,131.4,131.4,0,0,1,13.15-6.12q28.84-11.52,40.24-16.68a86.08,86.08,0,0,0,21.63-14.25q10.21-9.09,15.7-24.12a67.15,67.15,0,0,0,2.2-39.26Q2840.47,588.56,2824.31,572Z"/><rect width="20.8" height="21.3" x="2666.15" y="596.62" fill="#336eb5" transform="rotate(-82.84 2676.536 607.277)"/><rect width="20.8" height="21.3" x="2732.59" y="537.63" fill="#336eb5" transform="rotate(-82.84 2742.975 548.295)"/><rect width="9.25" height="21.43" x="2694.52" y="727.26" fill="#336eb5" transform="rotate(-82.84 2699.133 737.977)"/><rect width="9.25" height="21.43" x="2676.18" y="749.98" fill="#336eb5" transform="rotate(-82.84 2680.77 760.71)"/><rect width="9.25" height="21.43" x="2672.32" y="797.07" fill="#336eb5" transform="rotate(-82.84 2676.937 807.791)"/><path fill="#5c8ed6" d="M2802.91,569.26q-16.18-16.6-41.81-26-27.58-10.06-52.41-6.29t-41.88,17.08q-17.08,13.3-23.2,30.11-3,8.13,1.3,17.6a23.87,23.87,0,0,0,14.16,13.07q16.8,6.14,30.1-11.66,13.32-16.77,26.09-23.24t32.23.64q16.62,6.06,23.59,19.62a33.24,33.24,0,0,1,1.82,27.7,28.92,28.92,0,0,1-8.35,12.19,53.88,53.88,0,0,1-12.58,8.13q-6.88,3.19-21.8,9a297.33,297.33,0,0,0-27.64,12,69.52,69.52,0,0,0-19.16,14.65q-8.57,9.2-14,24.05-4.32,11.85-.23,20.15a22.89,22.89,0,0,0,13.27,11.65q17.7,6.45,27.75-10.72,5.1-7.95,7.34-11a38.85,38.85,0,0,1,5.25-5.9,41.59,41.59,0,0,1,8.16-5.64,134.79,134.79,0,0,1,13.15-6.12q28.85-11.52,40.24-16.68A85.86,85.86,0,0,0,2806,669.44q10.22-9.11,15.71-24.13a67.23,67.23,0,0,0,2.19-39.26Q2819.08,585.88,2802.91,569.26Z"/><path fill="#5c8ed6" d="M2678.51,756.58a28,28,0,0,0-21.87.64,26.82,26.82,0,0,0-14.61,15.9q-4.58,12.57.92,22.48a29.62,29.62,0,0,0,16.28,13.85,28.62,28.62,0,0,0,21-.37q10.53-4.17,15.05-16.55a27.64,27.64,0,0,0-16.74-35.95Z"/><path fill="#e06d20" d="M3799.65,688.8H3470.38a66,66,0,0,0-65.88,69.55l12.41,228.37a66,66,0,0,0,65.88,62.39h292a66,66,0,0,0,65.58-58.84l24.82-228.37A66,66,0,0,0,3799.65,688.8Z"/><path fill="#ef863f" d="M3306.38,916.23a7.11,7.11,0,0,0,1.68,13.54l82,13.33-7.95-59.64Z"/><path fill="#ff9d45" d="M3750.91,688.8H3421.63a66,66,0,0,0-65.87,69.55l12.41,228.37a66,66,0,0,0,65.87,62.39h292a66,66,0,0,0,65.59-58.84l24.82-228.37A66,66,0,0,0,3750.91,688.8Z"/><rect width="350.68" height="33.31" x="3416.64" y="771.89" fill="#fefefe" rx="15.88"/><rect width="339.26" height="33.31" x="3416.64" y="852.3" fill="#fefefe" rx="15.88"/><rect width="203.5" height="33.31" x="3416.64" y="932.71" fill="#fefefe" rx="15.88"/><path fill="#c4263d" d="M2330.59,2467.39l-237.37-43.32a10.77,10.77,0,0,0-7,1l-219,112.23a10.81,10.81,0,0,0-3.62,2.93,11.13,11.13,0,0,0,6.43,17.85l267.78,55.42a11.33,11.33,0,0,0,8.37-1.6l188.6-124.28a11.13,11.13,0,0,0,2.59-16.3A10.73,10.73,0,0,0,2330.59,2467.39Z"/><path fill="#dd333c" d="M2330.59,2467.39l-237.37-43.32a10.77,10.77,0,0,0-7,1l-219,112.23a10.81,10.81,0,0,0-3.62,2.93,10.64,10.64,0,0,0,6.43,4l267.78,55.37a10.8,10.8,0,0,0,8.37-1.61l188.6-124.28a11.35,11.35,0,0,0,2.59-2.35A10.73,10.73,0,0,0,2330.59,2467.39Z"/><path fill="#ebf1f7" d="M2314,2472.61l-.29-.05L2250,2460.91l-158.19-28.86-.63-.06a2.66,2.66,0,0,0-1.27.34l-74.36,38.1-36.89,18.94-96,49.17,256.88,53.13c.17,0,.34.06.51.06a2.78,2.78,0,0,0,1.61-.52L2314.87,2477A2.43,2.43,0,0,0,2314,2472.61Z"/><polygon fill="#fdfeff" points="2015.53 2470.43 1978.64 2489.37 2313.72 2472.55 2249.98 2460.91 2015.53 2470.43"/><polygon fill="#fdfeff" points="1931.01 2513.77 2284.02 2497.37 2298.61 2487.75 1946.73 2505.71 1931.01 2513.77"/><polygon fill="#fdfeff" points="1996.63 2562.11 2206.58 2548.41 2227.36 2534.71 1945.28 2551.49 1996.63 2562.11"/><path fill="#44a8a7" d="M2557.37,2475.51l269.17,39.23a13.76,13.76,0,0,0,9.28-2.25l164.12-116.15L2765.78,2380Z"/><path fill="#369694" d="M2551.36,2527.05a23.11,23.11,0,0,0,19.2,16.4l262,39.08.18-68.65-275.37-38.37S2542.44,2496.76,2551.36,2527.05Z"/><path fill="#fff" d="M2561,2488a59.42,59.42,0,0,0-3.5,24.11,24.55,24.55,0,0,0,21.14,23.08l253.94,39.91V2523.3l-266.26-38.6A5.06,5.06,0,0,0,2561,2488Z"/><path fill="#267773" d="M2832.72,2523.17l-.15,51.9v7.47L2999.94,2454v-7a61.64,61.64,0,0,1,0-41.8v-8.78l-167.22,117.52Z"/><path fill="#f7ebe4" d="M2832.72,2523.17l-.15.11v51.79l167.37-128.15a61.64,61.64,0,0,1,0-41.8Z"/><polygon fill="#eddbd3" points="2996.31 2432.04 2996.31 2426.67 2853.09 2527.5 2996.31 2432.04"/><path fill="#ef863f" d="M2762.65,2330.07l-114,48.59-59.94,25.55L2813.33,2435a11.45,11.45,0,0,0,7.73-1.68L2958,2347.05l-82.66-7.2Z"/><path fill="#d8681d" d="M2583.72,2446a19.63,19.63,0,0,0,16,13.62l218.6,30.52.15-55.7-229.76-30.16S2576.28,2421.24,2583.72,2446Z"/><path fill="#fff" d="M2591.75,2414.4a46.53,46.53,0,0,0-2.92,19.51,20.65,20.65,0,0,0,17.64,19.07L2818.35,2484v-42l-222.16-30.2A4.14,4.14,0,0,0,2591.75,2414.4Z"/><path fill="#c15b16" d="M2818.48,2441.92l-.13,42.12v6.06L2958,2393.84v-5.72a48.71,48.71,0,0,1,0-33.92v-7.12l-139.52,87.29Z"/><path fill="#f7ebe4" d="M2818.48,2441.92l-.13.09v42L2958,2388.12a48.71,48.71,0,0,1,0-33.92Z"/><polygon fill="#eddbd3" points="2954.98 2375.99 2954.98 2371.63 2835.48 2451.15 2954.98 2375.99"/><path fill="#f7ebe4" d="M2801.71,2460.71c-85.06-22-194.34-32.53-194.34-32.53Z"/><path fill="#f7ebe4" d="M2799.72,2471.3c-85.06-22-194.34-32.53-194.34-32.53Z"/><path fill="#ea792d" d="M2648.7,2378.66l-59.94,25.55L2813.33,2435a11.45,11.45,0,0,0,7.73-1.68L2958,2347.05l-82.66-7.2C2839.1,2356,2756.23,2385.65,2648.7,2378.66Z"/></svg>